<?xml version="1.0" encoding="us-ascii" standalone="no"?><svg xmlns="http://www.w3.org/2000/svg" xmlns:xlink="http://www.w3.org/1999/xlink" contentStyleType="text/css" height="1058px" preserveAspectRatio="none" style="width:914px;height:1058px;background:#FFFFFF;" version="1.1" viewBox="0 0 914 1058" width="914px" zoomAndPan="magnify"><defs/><g><text fill="#000000" font-family="sans-serif" font-size="14" font-weight="bold" lengthAdjust="spacing" textLength="261" x="327.5" y="29.5332">&#1055;&#1088;&#1086;&#1094;&#1077;&#1089;&#1089; &#1088;&#1077;&#1075;&#1080;&#1089;&#1090;&#1088;&#1072;&#1094;&#1080;&#1080; &#1087;&#1086;&#1083;&#1100;&#1079;&#1086;&#1074;&#1072;&#1090;&#1077;&#1083;&#1103;</text><rect fill="none" height="419.4609" style="stroke:#000000;stroke-width:1.5;" width="731.5" x="175.5" y="245.625"/><rect fill="none" height="279.8672" style="stroke:#000000;stroke-width:1.5;" width="897" x="10" y="679.0859"/><line style="stroke:#181818;stroke-width:0.5;stroke-dasharray:5.0,5.0;" x1="42" x2="42" y1="121.2188" y2="975.9531"/><line style="stroke:#181818;stroke-width:0.5;stroke-dasharray:5.0,5.0;" x1="247.5" x2="247.5" y1="121.2188" y2="975.9531"/><line style="stroke:#181818;stroke-width:0.5;stroke-dasharray:5.0,5.0;" x1="414" x2="414" y1="121.2188" y2="975.9531"/><line style="stroke:#181818;stroke-width:0.5;stroke-dasharray:5.0,5.0;" x1="561.5" x2="561.5" y1="121.2188" y2="975.9531"/><line style="stroke:#181818;stroke-width:0.5;stroke-dasharray:5.0,5.0;" x1="745" x2="745" y1="121.2188" y2="975.9531"/><line style="stroke:#181818;stroke-width:0.5;stroke-dasharray:5.0,5.0;" x1="850" x2="850" y1="121.2188" y2="975.9531"/><text fill="#000000" font-family="sans-serif" font-size="14" lengthAdjust="spacing" textLength="38" x="20" y="118.1426">&#1043;&#1086;&#1089;&#1090;&#1100;</text><ellipse cx="42" cy="52.1094" fill="#E2E2F0" rx="8" ry="8" style="stroke:#181818;stroke-width:0.5;"/><path d="M42,60.1094 L42,87.1094 M29,68.1094 L55,68.1094 M42,87.1094 L29,102.1094 M42,87.1094 L55,102.1094 " fill="none" style="stroke:#181818;stroke-width:0.5;"/><text fill="#000000" font-family="sans-serif" font-size="14" lengthAdjust="spacing" textLength="38" x="20" y="989.4863">&#1043;&#1086;&#1089;&#1090;&#1100;</text><ellipse cx="42" cy="1001.0625" fill="#E2E2F0" rx="8" ry="8" style="stroke:#181818;stroke-width:0.5;"/><path d="M42,1009.0625 L42,1036.0625 M29,1017.0625 L55,1017.0625 M42,1036.0625 L29,1051.0625 M42,1036.0625 L55,1051.0625 " fill="none" style="stroke:#181818;stroke-width:0.5;"/><rect fill="#E2E2F0" height="31.6094" rx="2.5" ry="2.5" style="stroke:#181818;stroke-width:0.5;" width="125" x="185.5" y="88.6094"/><text fill="#000000" font-family="sans-serif" font-size="14" lengthAdjust="spacing" textLength="111" x="192.5" y="110.1426">&#1042;&#1077;&#1073;-&#1087;&#1088;&#1080;&#1083;&#1086;&#1078;&#1077;&#1085;&#1080;&#1077;</text><rect fill="#E2E2F0" height="31.6094" rx="2.5" ry="2.5" style="stroke:#181818;stroke-width:0.5;" width="125" x="185.5" y="974.9531"/><text fill="#000000" font-family="sans-serif" font-size="14" lengthAdjust="spacing" textLength="111" x="192.5" y="996.4863">&#1042;&#1077;&#1073;-&#1087;&#1088;&#1080;&#1083;&#1086;&#1078;&#1077;&#1085;&#1080;&#1077;</text><rect fill="#E2E2F0" height="31.6094" rx="2.5" ry="2.5" style="stroke:#181818;stroke-width:0.5;" width="94" x="367" y="88.6094"/><text fill="#000000" font-family="sans-serif" font-size="14" lengthAdjust="spacing" textLength="80" x="374" y="110.1426">API Gateway</text><rect fill="#E2E2F0" height="31.6094" rx="2.5" ry="2.5" style="stroke:#181818;stroke-width:0.5;" width="94" x="367" y="974.9531"/><text fill="#000000" font-family="sans-serif" font-size="14" lengthAdjust="spacing" textLength="80" x="374" y="996.4863">API Gateway</text><rect fill="#E2E2F0" height="31.6094" rx="2.5" ry="2.5" style="stroke:#181818;stroke-width:0.5;" width="177" x="473.5" y="88.6094"/><text fill="#000000" font-family="sans-serif" font-size="14" lengthAdjust="spacing" textLength="163" x="480.5" y="110.1426">&#1057;&#1077;&#1088;&#1074;&#1080;&#1089; &#1072;&#1091;&#1090;&#1077;&#1085;&#1090;&#1080;&#1092;&#1080;&#1082;&#1072;&#1094;&#1080;&#1080;</text><rect fill="#E2E2F0" height="31.6094" rx="2.5" ry="2.5" style="stroke:#181818;stroke-width:0.5;" width="177" x="473.5" y="974.9531"/><text fill="#000000" font-family="sans-serif" font-size="14" lengthAdjust="spacing" textLength="163" x="480.5" y="996.4863">&#1057;&#1077;&#1088;&#1074;&#1080;&#1089; &#1072;&#1091;&#1090;&#1077;&#1085;&#1090;&#1080;&#1092;&#1080;&#1082;&#1072;&#1094;&#1080;&#1080;</text><rect fill="#E2E2F0" height="31.6094" rx="2.5" ry="2.5" style="stroke:#181818;stroke-width:0.5;" width="98" x="696" y="88.6094"/><text fill="#000000" font-family="sans-serif" font-size="14" lengthAdjust="spacing" textLength="84" x="703" y="110.1426">Email-&#1089;&#1077;&#1088;&#1074;&#1080;&#1089;</text><rect fill="#E2E2F0" height="31.6094" rx="2.5" ry="2.5" style="stroke:#181818;stroke-width:0.5;" width="98" x="696" y="974.9531"/><text fill="#000000" font-family="sans-serif" font-size="14" lengthAdjust="spacing" textLength="84" x="703" y="996.4863">Email-&#1089;&#1077;&#1088;&#1074;&#1080;&#1089;</text><text fill="#000000" font-family="sans-serif" font-size="14" lengthAdjust="spacing" textLength="87" x="804" y="118.1426">&#1054;&#1089;&#1085;&#1086;&#1074;&#1085;&#1072;&#1103; &#1041;&#1044;</text><path d="M832.5,67.6094 C832.5,57.6094 850.5,57.6094 850.5,57.6094 C850.5,57.6094 868.5,57.6094 868.5,67.6094 L868.5,93.6094 C868.5,103.6094 850.5,103.6094 850.5,103.6094 C850.5,103.6094 832.5,103.6094 832.5,93.6094 L832.5,67.6094 " fill="#E2E2F0" style="stroke:#181818;stroke-width:1.5;"/><path d="M832.5,67.6094 C832.5,77.6094 850.5,77.6094 850.5,77.6094 C850.5,77.6094 868.5,77.6094 868.5,67.6094 " fill="none" style="stroke:#181818;stroke-width:1.5;"/><text fill="#000000" font-family="sans-serif" font-size="14" lengthAdjust="spacing" textLength="87" x="804" y="989.4863">&#1054;&#1089;&#1085;&#1086;&#1074;&#1085;&#1072;&#1103; &#1041;&#1044;</text><path d="M832.5,1002.5625 C832.5,992.5625 850.5,992.5625 850.5,992.5625 C850.5,992.5625 868.5,992.5625 868.5,1002.5625 L868.5,1028.5625 C868.5,1038.5625 850.5,1038.5625 850.5,1038.5625 C850.5,1038.5625 832.5,1038.5625 832.5,1028.5625 L832.5,1002.5625 " fill="#E2E2F0" style="stroke:#181818;stroke-width:1.5;"/><path d="M832.5,1002.5625 C832.5,1012.5625 850.5,1012.5625 850.5,1012.5625 C850.5,1012.5625 868.5,1012.5625 868.5,1002.5625 " fill="none" style="stroke:#181818;stroke-width:1.5;"/><polygon fill="#181818" points="236,149.5703,246,153.5703,236,157.5703,240,153.5703" style="stroke:#181818;stroke-width:1.0;"/><line style="stroke:#181818;stroke-width:1.0;" x1="42" x2="242" y1="153.5703" y2="153.5703"/><text fill="#000000" font-family="sans-serif" font-size="13" lengthAdjust="spacing" textLength="182" x="49" y="148.7139">&#1047;&#1072;&#1087;&#1086;&#1083;&#1085;&#1103;&#1077;&#1090; &#1092;&#1086;&#1088;&#1084;&#1091; &#1088;&#1077;&#1075;&#1080;&#1089;&#1090;&#1088;&#1072;&#1094;&#1080;&#1080;</text><polygon fill="#181818" points="402,196.2734,412,200.2734,402,204.2734,406,200.2734" style="stroke:#181818;stroke-width:1.0;"/><line style="stroke:#181818;stroke-width:1.0;" x1="248" x2="408" y1="200.2734" y2="200.2734"/><text fill="#000000" font-family="sans-serif" font-size="13" lengthAdjust="spacing" textLength="136" x="255" y="179.0654">POST /api/auth/register</text><text fill="#000000" font-family="sans-serif" font-size="13" lengthAdjust="spacing" textLength="142" x="255" y="195.417">{email, password, name}</text><polygon fill="#181818" points="550,226.625,560,230.625,550,234.625,554,230.625" style="stroke:#181818;stroke-width:1.0;"/><line style="stroke:#181818;stroke-width:1.0;" x1="414" x2="556" y1="230.625" y2="230.625"/><text fill="#000000" font-family="sans-serif" font-size="13" lengthAdjust="spacing" textLength="115" x="421" y="225.7686">&#1042;&#1072;&#1083;&#1080;&#1076;&#1072;&#1094;&#1080;&#1103; &#1076;&#1072;&#1085;&#1085;&#1099;&#1093;</text><path d="M175.5,245.625 L236.5,245.625 L236.5,253.9766 L226.5,263.9766 L175.5,263.9766 L175.5,245.625 " fill="#EEEEEE" style="stroke:#000000;stroke-width:1.5;"/><rect fill="none" height="419.4609" style="stroke:#000000;stroke-width:1.5;" width="731.5" x="175.5" y="245.625"/><text fill="#000000" font-family="sans-serif" font-size="13" font-weight="bold" lengthAdjust="spacing" textLength="16" x="190.5" y="260.1201">alt</text><text fill="#000000" font-family="sans-serif" font-size="11" font-weight="bold" lengthAdjust="spacing" textLength="123" x="251.5" y="259.0439">[&#1044;&#1072;&#1085;&#1085;&#1099;&#1077; &#1082;&#1086;&#1088;&#1088;&#1077;&#1082;&#1090;&#1085;&#1099;&#1077;]</text><polygon fill="#181818" points="838.5,282.3281,848.5,286.3281,838.5,290.3281,842.5,286.3281" style="stroke:#181818;stroke-width:1.0;"/><line style="stroke:#181818;stroke-width:1.0;" x1="562" x2="844.5" y1="286.3281" y2="286.3281"/><text fill="#000000" font-family="sans-serif" font-size="13" lengthAdjust="spacing" textLength="177" x="569" y="281.4717">&#1055;&#1088;&#1086;&#1074;&#1077;&#1088;&#1082;&#1072; &#1091;&#1085;&#1080;&#1082;&#1072;&#1083;&#1100;&#1085;&#1086;&#1089;&#1090;&#1080; email</text><polygon fill="#181818" points="573,312.6797,563,316.6797,573,320.6797,569,316.6797" style="stroke:#181818;stroke-width:1.0;"/><line style="stroke:#181818;stroke-width:1.0;stroke-dasharray:2.0,2.0;" x1="567" x2="849.5" y1="316.6797" y2="316.6797"/><text fill="#000000" font-family="sans-serif" font-size="13" lengthAdjust="spacing" textLength="94" x="579" y="311.8232">Email &#1089;&#1074;&#1086;&#1073;&#1086;&#1076;&#1077;&#1085;</text><polygon fill="#181818" points="838.5,343.0313,848.5,347.0313,838.5,351.0313,842.5,347.0313" style="stroke:#181818;stroke-width:1.0;"/><line style="stroke:#181818;stroke-width:1.0;" x1="562" x2="844.5" y1="347.0313" y2="347.0313"/><text fill="#000000" font-family="sans-serif" font-size="13" lengthAdjust="spacing" textLength="143" x="569" y="342.1748">&#1057;&#1086;&#1079;&#1076;&#1072;&#1085;&#1080;&#1077; &#1087;&#1086;&#1083;&#1100;&#1079;&#1086;&#1074;&#1072;&#1090;&#1077;&#1083;&#1103;</text><polygon fill="#181818" points="573,373.3828,563,377.3828,573,381.3828,569,377.3828" style="stroke:#181818;stroke-width:1.0;"/><line style="stroke:#181818;stroke-width:1.0;stroke-dasharray:2.0,2.0;" x1="567" x2="849.5" y1="377.3828" y2="377.3828"/><text fill="#000000" font-family="sans-serif" font-size="13" lengthAdjust="spacing" textLength="97" x="579" y="372.5264">ID &#1087;&#1086;&#1083;&#1100;&#1079;&#1086;&#1074;&#1072;&#1090;&#1077;&#1083;&#1103;</text><polygon fill="#181818" points="733,420.0859,743,424.0859,733,428.0859,737,424.0859" style="stroke:#181818;stroke-width:1.0;"/><line style="stroke:#181818;stroke-width:1.0;" x1="562" x2="739" y1="424.0859" y2="424.0859"/><text fill="#000000" font-family="sans-serif" font-size="13" lengthAdjust="spacing" textLength="118" x="569" y="402.8779">&#1047;&#1072;&#1087;&#1088;&#1086;&#1089; &#1085;&#1072; &#1086;&#1090;&#1087;&#1088;&#1072;&#1074;&#1082;&#1091;</text><text fill="#000000" font-family="sans-serif" font-size="13" lengthAdjust="spacing" textLength="159" x="569" y="419.2295">&#1074;&#1077;&#1088;&#1080;&#1092;&#1080;&#1082;&#1072;&#1094;&#1080;&#1086;&#1085;&#1085;&#1086;&#1075;&#1086; &#1087;&#1080;&#1089;&#1100;&#1084;&#1072;</text><polygon fill="#181818" points="573,450.4375,563,454.4375,573,458.4375,569,454.4375" style="stroke:#181818;stroke-width:1.0;"/><line style="stroke:#181818;stroke-width:1.0;stroke-dasharray:2.0,2.0;" x1="567" x2="744" y1="454.4375" y2="454.4375"/><text fill="#000000" font-family="sans-serif" font-size="13" lengthAdjust="spacing" textLength="118" x="579" y="449.5811">&#1055;&#1080;&#1089;&#1100;&#1084;&#1086; &#1086;&#1090;&#1087;&#1088;&#1072;&#1074;&#1083;&#1077;&#1085;&#1086;</text><polygon fill="#181818" points="425,497.1406,415,501.1406,425,505.1406,421,501.1406" style="stroke:#181818;stroke-width:1.0;"/><line style="stroke:#181818;stroke-width:1.0;stroke-dasharray:2.0,2.0;" x1="419" x2="561" y1="501.1406" y2="501.1406"/><text fill="#000000" font-family="sans-serif" font-size="13" lengthAdjust="spacing" textLength="70" x="431" y="479.9326">201 Created</text><text fill="#000000" font-family="sans-serif" font-size="13" lengthAdjust="spacing" textLength="124" x="431" y="496.2842">+ verification_pending</text><polygon fill="#181818" points="259,543.8438,249,547.8438,259,551.8438,255,547.8438" style="stroke:#181818;stroke-width:1.0;"/><line style="stroke:#181818;stroke-width:1.0;stroke-dasharray:2.0,2.0;" x1="253" x2="413" y1="547.8438" y2="547.8438"/><text fill="#000000" font-family="sans-serif" font-size="13" lengthAdjust="spacing" textLength="132" x="265" y="526.6357">&#1056;&#1077;&#1076;&#1080;&#1088;&#1077;&#1082;&#1090; &#1085;&#1072; &#1089;&#1090;&#1088;&#1072;&#1085;&#1080;&#1094;&#1091;</text><text fill="#000000" font-family="sans-serif" font-size="13" lengthAdjust="spacing" textLength="141" x="265" y="542.9873">&#1086;&#1078;&#1080;&#1076;&#1072;&#1085;&#1080;&#1103; &#1074;&#1077;&#1088;&#1080;&#1092;&#1080;&#1082;&#1072;&#1094;&#1080;&#1080;</text><line style="stroke:#000000;stroke-width:1.0;stroke-dasharray:2.0,2.0;" x1="175.5" x2="907" y1="556.8438" y2="556.8438"/><text fill="#000000" font-family="sans-serif" font-size="11" font-weight="bold" lengthAdjust="spacing" textLength="115" x="180.5" y="568.2627">[&#1054;&#1096;&#1080;&#1073;&#1082;&#1072; &#1074;&#1072;&#1083;&#1080;&#1076;&#1072;&#1094;&#1080;&#1080;]</text><polygon fill="#181818" points="425,606.3828,415,610.3828,425,614.3828,421,610.3828" style="stroke:#181818;stroke-width:1.0;"/><line style="stroke:#181818;stroke-width:1.0;stroke-dasharray:2.0,2.0;" x1="419" x2="561" y1="610.3828" y2="610.3828"/><text fill="#000000" font-family="sans-serif" font-size="13" lengthAdjust="spacing" textLength="100" x="431" y="589.1748">400 Bad Request</text><text fill="#000000" font-family="sans-serif" font-size="13" lengthAdjust="spacing" textLength="41" x="431" y="605.5264">{errors}</text><polygon fill="#181818" points="259,653.0859,249,657.0859,259,661.0859,255,657.0859" style="stroke:#181818;stroke-width:1.0;"/><line style="stroke:#181818;stroke-width:1.0;stroke-dasharray:2.0,2.0;" x1="253" x2="413" y1="657.0859" y2="657.0859"/><text fill="#000000" font-family="sans-serif" font-size="13" lengthAdjust="spacing" textLength="129" x="265" y="635.8779">&#1054;&#1090;&#1086;&#1073;&#1088;&#1072;&#1078;&#1077;&#1085;&#1080;&#1077; &#1086;&#1096;&#1080;&#1073;&#1086;&#1082;</text><text fill="#000000" font-family="sans-serif" font-size="13" lengthAdjust="spacing" textLength="50" x="265" y="652.2295">&#1074; &#1092;&#1086;&#1088;&#1084;&#1077;</text><path d="M10,679.0859 L191,679.0859 L191,687.4375 L181,697.4375 L10,697.4375 L10,679.0859 " fill="#EEEEEE" style="stroke:#000000;stroke-width:1.5;"/><rect fill="none" height="279.8672" style="stroke:#000000;stroke-width:1.5;" width="897" x="10" y="679.0859"/><text fill="#000000" font-family="sans-serif" font-size="13" font-weight="bold" lengthAdjust="spacing" textLength="132" x="25" y="693.5811">&#1042;&#1077;&#1088;&#1080;&#1092;&#1080;&#1082;&#1072;&#1094;&#1080;&#1103; email</text><text fill="#000000" font-family="sans-serif" font-size="11" font-weight="bold" lengthAdjust="spacing" textLength="75" x="206" y="692.5049">[&#1072;&#1089;&#1080;&#1085;&#1093;&#1088;&#1086;&#1085;&#1085;&#1086;]</text><polygon fill="#181818" points="733,732.1406,743,736.1406,733,740.1406,737,736.1406" style="stroke:#181818;stroke-width:1.0;"/><line style="stroke:#181818;stroke-width:1.0;" x1="42" x2="739" y1="736.1406" y2="736.1406"/><text fill="#000000" font-family="sans-serif" font-size="13" lengthAdjust="spacing" textLength="129" x="49" y="714.9326">&#1055;&#1077;&#1088;&#1077;&#1093;&#1086;&#1076;&#1080;&#1090; &#1087;&#1086; &#1089;&#1089;&#1099;&#1083;&#1082;&#1077;</text><text fill="#000000" font-family="sans-serif" font-size="13" lengthAdjust="spacing" textLength="61" x="49" y="731.2842">&#1080;&#1079; &#1087;&#1080;&#1089;&#1100;&#1084;&#1072;</text><polygon fill="#181818" points="425,762.4922,415,766.4922,425,770.4922,421,766.4922" style="stroke:#181818;stroke-width:1.0;"/><line style="stroke:#181818;stroke-width:1.0;" x1="419" x2="744" y1="766.4922" y2="766.4922"/><text fill="#000000" font-family="sans-serif" font-size="13" lengthAdjust="spacing" textLength="172" x="431" y="761.6357">GET /api/auth/verify?token=...</text><polygon fill="#181818" points="550,792.8438,560,796.8438,550,800.8438,554,796.8438" style="stroke:#181818;stroke-width:1.0;"/><line style="stroke:#181818;stroke-width:1.0;" x1="414" x2="556" y1="796.8438" y2="796.8438"/><text fill="#000000" font-family="sans-serif" font-size="13" lengthAdjust="spacing" textLength="100" x="421" y="791.9873">&#1055;&#1088;&#1086;&#1074;&#1077;&#1088;&#1082;&#1072; &#1090;&#1086;&#1082;&#1077;&#1085;&#1072;</text><polygon fill="#181818" points="838.5,823.1953,848.5,827.1953,838.5,831.1953,842.5,827.1953" style="stroke:#181818;stroke-width:1.0;"/><line style="stroke:#181818;stroke-width:1.0;" x1="562" x2="844.5" y1="827.1953" y2="827.1953"/><text fill="#000000" font-family="sans-serif" font-size="13" lengthAdjust="spacing" textLength="118" x="569" y="822.3389">&#1040;&#1082;&#1090;&#1080;&#1074;&#1072;&#1094;&#1080;&#1103; &#1072;&#1082;&#1082;&#1072;&#1091;&#1085;&#1090;&#1072;</text><polygon fill="#181818" points="573,853.5469,563,857.5469,573,861.5469,569,857.5469" style="stroke:#181818;stroke-width:1.0;"/><line style="stroke:#181818;stroke-width:1.0;stroke-dasharray:2.0,2.0;" x1="567" x2="849.5" y1="857.5469" y2="857.5469"/><text fill="#000000" font-family="sans-serif" font-size="13" lengthAdjust="spacing" textLength="95" x="579" y="852.6904">&#1055;&#1086;&#1076;&#1090;&#1074;&#1077;&#1088;&#1078;&#1076;&#1077;&#1085;&#1080;&#1077;</text><polygon fill="#181818" points="425,900.25,415,904.25,425,908.25,421,904.25" style="stroke:#181818;stroke-width:1.0;"/><line style="stroke:#181818;stroke-width:1.0;stroke-dasharray:2.0,2.0;" x1="419" x2="561" y1="904.25" y2="904.25"/><text fill="#000000" font-family="sans-serif" font-size="13" lengthAdjust="spacing" textLength="73" x="431" y="883.042">302 Redirect</text><text fill="#000000" font-family="sans-serif" font-size="13" lengthAdjust="spacing" textLength="49" x="431" y="899.3936">&#1085;&#1072; /login</text><polygon fill="#181818" points="53,946.9531,43,950.9531,53,954.9531,49,950.9531" style="stroke:#181818;stroke-width:1.0;"/><line style="stroke:#181818;stroke-width:1.0;stroke-dasharray:2.0,2.0;" x1="47" x2="413" y1="950.9531" y2="950.9531"/><text fill="#000000" font-family="sans-serif" font-size="13" lengthAdjust="spacing" textLength="107" x="59" y="929.7451">&#1055;&#1077;&#1088;&#1077;&#1085;&#1072;&#1087;&#1088;&#1072;&#1074;&#1083;&#1077;&#1085;&#1080;&#1077;</text><text fill="#000000" font-family="sans-serif" font-size="13" lengthAdjust="spacing" textLength="112" x="59" y="946.0967">&#1085;&#1072; &#1089;&#1090;&#1088;&#1072;&#1085;&#1080;&#1094;&#1091; &#1074;&#1093;&#1086;&#1076;&#1072;</text><!--SRC=[VLJRJjj047ttLwnuBI4fxHDIM_M244z5RTyAgZRnabeDTkgO8bGXaQIWIaMYfKXzW_87vXAm4cn-OVUFUcPivqwHIDRhcJDdpfn9u0Gr9VIfsTM9sTSTqpHDWOUEljGH7beuXtWHwKZeEvtedZdGD_Y-m7KBOJrpQ5co4dY-qB-1GIa7GZP4TLCr0gik_S2fE7Nf1c967o7XlA3l01hf7b2kSH7Zt9cXb7NVSyTIdgyiYoKPg2svpI6oxenXde7qBkY0hG2dDhEAyHcPRq3kvlJJzCtWusZ-uePqQWNJ7A1meA9hovQ1BCk6GfaJXCJSTmp4Gw5_wMEEjCkMnRsAmjEqWmMX_-WmLGjC3W7T4Y2JeCAjQTyZhyMv188U5yJAwxVlH1778d4k-ghgD0BbhxfVcTgigCj6OylpxLdXoWsrOo6Kan4D0aSWq0FiLGfFX744zzZyC7kOM2qG-ZY_qHq1eS2FgNKX7bzQ0dy4IC1sUI7p2JGWiQ2iC6qUNvUgmHXnQW1u9TMFyksoAFHviTe2Kbu0vXp_LpIioJfdU7MJCOw8tNtMcwYm_Eh_mIErc6K-Bbu1U0Zp5JYr-2O4GDUqLzsiwL5J9IGVFYzrGbLfeWVwLeTSXC67cEdJVa0oMg37Mv2CyykjC5zwA5xw2bjWhxeFn1VbE-jEHGQEvtweAzTst6gQHGuOCk5Vm5wXPZRJjBFST2IisUVEQ0sZN6noohHM8qlLi0ZOW-zuEkVfaxZ3BaFG9Fl7fP9u8MtnHdscBI43-xxdDtQcSZw1B706C-p_E91QQTL4TsaK_Ms2Ho405j3tDkla-WdYw2STn7iyDt4VcpqsCKzkZKdqrpVtmodZTCmUEpGYxU0fqgw9lUW1kmCQaRwvT-fPyqkBmqlCazj-5dYVbFjaRcvkeC308-CBHd9qMOXmSar-ygv6RF9ioqD4K-jj_WqC9nS4pQ4fl4kBNAShI39F6TwZqZm6Ppk-gc1oRA1YpQiwxiZmMB-1R1Gsvks81PlcFvWeapcaKVu3]--></g></svg>