<?xml version="1.0" encoding="us-ascii" standalone="no"?><svg xmlns="http://www.w3.org/2000/svg" xmlns:xlink="http://www.w3.org/1999/xlink" contentStyleType="text/css" height="830px" preserveAspectRatio="none" style="width:930px;height:830px;background:#FFFFFF;" version="1.1" viewBox="0 0 930 830" width="930px" zoomAndPan="magnify"><defs/><g><text fill="#000000" font-family="sans-serif" font-size="14" font-weight="bold" lengthAdjust="spacing" textLength="220" x="354" y="29.5332">&#1055;&#1088;&#1086;&#1093;&#1086;&#1078;&#1076;&#1077;&#1085;&#1080;&#1077; &#1091;&#1088;&#1086;&#1082;&#1072; &#1089;&#1090;&#1091;&#1076;&#1077;&#1085;&#1090;&#1086;&#1084;</text><line style="stroke:#181818;stroke-width:0.5;stroke-dasharray:5.0,5.0;" x1="35" x2="35" y1="121.2188" y2="748.25"/><line style="stroke:#181818;stroke-width:0.5;stroke-dasharray:5.0,5.0;" x1="247" x2="247" y1="121.2188" y2="748.25"/><line style="stroke:#181818;stroke-width:0.5;stroke-dasharray:5.0,5.0;" x1="418.5" x2="418.5" y1="121.2188" y2="748.25"/><line style="stroke:#181818;stroke-width:0.5;stroke-dasharray:5.0,5.0;" x1="597" x2="597" y1="121.2188" y2="748.25"/><line style="stroke:#181818;stroke-width:0.5;stroke-dasharray:5.0,5.0;" x1="728" x2="728" y1="121.2188" y2="748.25"/><line style="stroke:#181818;stroke-width:0.5;stroke-dasharray:5.0,5.0;" x1="873" x2="873" y1="121.2188" y2="748.25"/><text fill="#000000" font-family="sans-serif" font-size="14" lengthAdjust="spacing" textLength="55" x="5" y="118.1426">&#1057;&#1090;&#1091;&#1076;&#1077;&#1085;&#1090;</text><ellipse cx="35.5" cy="52.1094" fill="#E2E2F0" rx="8" ry="8" style="stroke:#181818;stroke-width:0.5;"/><path d="M35.5,60.1094 L35.5,87.1094 M22.5,68.1094 L48.5,68.1094 M35.5,87.1094 L22.5,102.1094 M35.5,87.1094 L48.5,102.1094 " fill="none" style="stroke:#181818;stroke-width:0.5;"/><text fill="#000000" font-family="sans-serif" font-size="14" lengthAdjust="spacing" textLength="55" x="5" y="761.7832">&#1057;&#1090;&#1091;&#1076;&#1077;&#1085;&#1090;</text><ellipse cx="35.5" cy="773.3594" fill="#E2E2F0" rx="8" ry="8" style="stroke:#181818;stroke-width:0.5;"/><path d="M35.5,781.3594 L35.5,808.3594 M22.5,789.3594 L48.5,789.3594 M35.5,808.3594 L22.5,823.3594 M35.5,808.3594 L48.5,823.3594 " fill="none" style="stroke:#181818;stroke-width:0.5;"/><rect fill="#E2E2F0" height="31.6094" rx="2.5" ry="2.5" style="stroke:#181818;stroke-width:0.5;" width="125" x="185" y="88.6094"/><text fill="#000000" font-family="sans-serif" font-size="14" lengthAdjust="spacing" textLength="111" x="192" y="110.1426">&#1042;&#1077;&#1073;-&#1087;&#1088;&#1080;&#1083;&#1086;&#1078;&#1077;&#1085;&#1080;&#1077;</text><rect fill="#E2E2F0" height="31.6094" rx="2.5" ry="2.5" style="stroke:#181818;stroke-width:0.5;" width="125" x="185" y="747.25"/><text fill="#000000" font-family="sans-serif" font-size="14" lengthAdjust="spacing" textLength="111" x="192" y="768.7832">&#1042;&#1077;&#1073;-&#1087;&#1088;&#1080;&#1083;&#1086;&#1078;&#1077;&#1085;&#1080;&#1077;</text><rect fill="#E2E2F0" height="31.6094" rx="2.5" ry="2.5" style="stroke:#181818;stroke-width:0.5;" width="94" x="371.5" y="88.6094"/><text fill="#000000" font-family="sans-serif" font-size="14" lengthAdjust="spacing" textLength="80" x="378.5" y="110.1426">API Gateway</text><rect fill="#E2E2F0" height="31.6094" rx="2.5" ry="2.5" style="stroke:#181818;stroke-width:0.5;" width="94" x="371.5" y="747.25"/><text fill="#000000" font-family="sans-serif" font-size="14" lengthAdjust="spacing" textLength="80" x="378.5" y="768.7832">API Gateway</text><rect fill="#E2E2F0" height="31.6094" rx="2.5" ry="2.5" style="stroke:#181818;stroke-width:0.5;" width="109" x="543" y="88.6094"/><text fill="#000000" font-family="sans-serif" font-size="14" lengthAdjust="spacing" textLength="95" x="550" y="110.1426">&#1057;&#1077;&#1088;&#1074;&#1080;&#1089; &#1082;&#1091;&#1088;&#1089;&#1086;&#1074;</text><rect fill="#E2E2F0" height="31.6094" rx="2.5" ry="2.5" style="stroke:#181818;stroke-width:0.5;" width="109" x="543" y="747.25"/><text fill="#000000" font-family="sans-serif" font-size="14" lengthAdjust="spacing" textLength="95" x="550" y="768.7832">&#1057;&#1077;&#1088;&#1074;&#1080;&#1089; &#1082;&#1091;&#1088;&#1089;&#1086;&#1074;</text><rect fill="#E2E2F0" height="31.6094" rx="2.5" ry="2.5" style="stroke:#181818;stroke-width:0.5;" width="133" x="662" y="88.6094"/><text fill="#000000" font-family="sans-serif" font-size="14" lengthAdjust="spacing" textLength="119" x="669" y="110.1426">&#1057;&#1077;&#1088;&#1074;&#1080;&#1089; &#1087;&#1088;&#1086;&#1075;&#1088;&#1077;&#1089;&#1089;&#1072;</text><rect fill="#E2E2F0" height="31.6094" rx="2.5" ry="2.5" style="stroke:#181818;stroke-width:0.5;" width="133" x="662" y="747.25"/><text fill="#000000" font-family="sans-serif" font-size="14" lengthAdjust="spacing" textLength="119" x="669" y="768.7832">&#1057;&#1077;&#1088;&#1074;&#1080;&#1089; &#1087;&#1088;&#1086;&#1075;&#1088;&#1077;&#1089;&#1089;&#1072;</text><rect fill="#E2E2F0" height="31.6094" rx="2.5" ry="2.5" style="stroke:#181818;stroke-width:0.5;" width="101" x="823" y="88.6094"/><text fill="#000000" font-family="sans-serif" font-size="14" lengthAdjust="spacing" textLength="87" x="830" y="110.1426">&#1054;&#1089;&#1085;&#1086;&#1074;&#1085;&#1072;&#1103; &#1041;&#1044;</text><rect fill="#E2E2F0" height="31.6094" rx="2.5" ry="2.5" style="stroke:#181818;stroke-width:0.5;" width="101" x="823" y="747.25"/><text fill="#000000" font-family="sans-serif" font-size="14" lengthAdjust="spacing" textLength="87" x="830" y="768.7832">&#1054;&#1089;&#1085;&#1086;&#1074;&#1085;&#1072;&#1103; &#1041;&#1044;</text><polygon fill="#181818" points="235.5,149.5703,245.5,153.5703,235.5,157.5703,239.5,153.5703" style="stroke:#181818;stroke-width:1.0;"/><line style="stroke:#181818;stroke-width:1.0;" x1="35.5" x2="241.5" y1="153.5703" y2="153.5703"/><text fill="#000000" font-family="sans-serif" font-size="13" lengthAdjust="spacing" textLength="158" x="42.5" y="148.7139">&#1047;&#1072;&#1075;&#1088;&#1091;&#1078;&#1072;&#1077;&#1090; &#1089;&#1090;&#1088;&#1072;&#1085;&#1080;&#1094;&#1091; &#1091;&#1088;&#1086;&#1082;&#1072;</text><polygon fill="#181818" points="406.5,179.9219,416.5,183.9219,406.5,187.9219,410.5,183.9219" style="stroke:#181818;stroke-width:1.0;"/><line style="stroke:#181818;stroke-width:1.0;" x1="247.5" x2="412.5" y1="183.9219" y2="183.9219"/><text fill="#000000" font-family="sans-serif" font-size="13" lengthAdjust="spacing" textLength="122" x="254.5" y="179.0654">GET /api/lessons/{id}</text><polygon fill="#181818" points="585.5,210.2734,595.5,214.2734,585.5,218.2734,589.5,214.2734" style="stroke:#181818;stroke-width:1.0;"/><line style="stroke:#181818;stroke-width:1.0;" x1="418.5" x2="591.5" y1="214.2734" y2="214.2734"/><text fill="#000000" font-family="sans-serif" font-size="13" lengthAdjust="spacing" textLength="109" x="425.5" y="209.417">&#1055;&#1088;&#1086;&#1074;&#1077;&#1088;&#1082;&#1072; &#1076;&#1086;&#1089;&#1090;&#1091;&#1087;&#1072;</text><polygon fill="#181818" points="861.5,240.625,871.5,244.625,861.5,248.625,865.5,244.625" style="stroke:#181818;stroke-width:1.0;"/><line style="stroke:#181818;stroke-width:1.0;" x1="597.5" x2="867.5" y1="244.625" y2="244.625"/><text fill="#000000" font-family="sans-serif" font-size="13" lengthAdjust="spacing" textLength="130" x="604.5" y="239.7686">&#1047;&#1072;&#1087;&#1088;&#1086;&#1089; &#1076;&#1072;&#1085;&#1085;&#1099;&#1093; &#1091;&#1088;&#1086;&#1082;&#1072;</text><polygon fill="#181818" points="608.5,270.9766,598.5,274.9766,608.5,278.9766,604.5,274.9766" style="stroke:#181818;stroke-width:1.0;"/><line style="stroke:#181818;stroke-width:1.0;stroke-dasharray:2.0,2.0;" x1="602.5" x2="872.5" y1="274.9766" y2="274.9766"/><text fill="#000000" font-family="sans-serif" font-size="13" lengthAdjust="spacing" textLength="84" x="614.5" y="270.1201">&#1044;&#1072;&#1085;&#1085;&#1099;&#1077; &#1091;&#1088;&#1086;&#1082;&#1072;</text><polygon fill="#181818" points="429.5,301.3281,419.5,305.3281,429.5,309.3281,425.5,305.3281" style="stroke:#181818;stroke-width:1.0;"/><line style="stroke:#181818;stroke-width:1.0;stroke-dasharray:2.0,2.0;" x1="423.5" x2="596.5" y1="305.3281" y2="305.3281"/><text fill="#000000" font-family="sans-serif" font-size="13" lengthAdjust="spacing" textLength="109" x="435.5" y="300.4717">&#1054;&#1090;&#1074;&#1077;&#1090; &#1089; &#1082;&#1086;&#1085;&#1090;&#1077;&#1085;&#1090;&#1086;&#1084;</text><polygon fill="#181818" points="258.5,331.6797,248.5,335.6797,258.5,339.6797,254.5,335.6797" style="stroke:#181818;stroke-width:1.0;"/><line style="stroke:#181818;stroke-width:1.0;stroke-dasharray:2.0,2.0;" x1="252.5" x2="417.5" y1="335.6797" y2="335.6797"/><text fill="#000000" font-family="sans-serif" font-size="13" lengthAdjust="spacing" textLength="118" x="264.5" y="330.8232">&#1054;&#1090;&#1086;&#1073;&#1088;&#1072;&#1078;&#1077;&#1085;&#1080;&#1077; &#1091;&#1088;&#1086;&#1082;&#1072;</text><polygon fill="#181818" points="235.5,362.0313,245.5,366.0313,235.5,370.0313,239.5,366.0313" style="stroke:#181818;stroke-width:1.0;"/><line style="stroke:#181818;stroke-width:1.0;" x1="35.5" x2="241.5" y1="366.0313" y2="366.0313"/><text fill="#000000" font-family="sans-serif" font-size="13" lengthAdjust="spacing" textLength="188" x="42.5" y="361.1748">&#1054;&#1090;&#1084;&#1077;&#1095;&#1072;&#1077;&#1090; &#1091;&#1088;&#1086;&#1082; &#1082;&#1072;&#1082; &#1087;&#1088;&#1086;&#1081;&#1076;&#1077;&#1085;&#1085;&#1099;&#1081;</text><polygon fill="#181818" points="406.5,392.3828,416.5,396.3828,406.5,400.3828,410.5,396.3828" style="stroke:#181818;stroke-width:1.0;"/><line style="stroke:#181818;stroke-width:1.0;" x1="247.5" x2="412.5" y1="396.3828" y2="396.3828"/><text fill="#000000" font-family="sans-serif" font-size="13" lengthAdjust="spacing" textLength="114" x="254.5" y="391.5264">POST /api/progress</text><polygon fill="#181818" points="716.5,422.7344,726.5,426.7344,716.5,430.7344,720.5,426.7344" style="stroke:#181818;stroke-width:1.0;"/><line style="stroke:#181818;stroke-width:1.0;" x1="418.5" x2="722.5" y1="426.7344" y2="426.7344"/><text fill="#000000" font-family="sans-serif" font-size="13" lengthAdjust="spacing" textLength="138" x="425.5" y="421.8779">&#1054;&#1073;&#1085;&#1086;&#1074;&#1083;&#1077;&#1085;&#1080;&#1077; &#1087;&#1088;&#1086;&#1075;&#1088;&#1077;&#1089;&#1089;&#1072;</text><polygon fill="#181818" points="861.5,453.0859,871.5,457.0859,861.5,461.0859,865.5,457.0859" style="stroke:#181818;stroke-width:1.0;"/><line style="stroke:#181818;stroke-width:1.0;" x1="728.5" x2="867.5" y1="457.0859" y2="457.0859"/><text fill="#000000" font-family="sans-serif" font-size="13" lengthAdjust="spacing" textLength="121" x="735.5" y="452.2295">&#1057;&#1086;&#1093;&#1088;&#1072;&#1085;&#1077;&#1085;&#1080;&#1077; &#1089;&#1090;&#1072;&#1090;&#1091;&#1089;&#1072;</text><polygon fill="#181818" points="739.5,483.4375,729.5,487.4375,739.5,491.4375,735.5,487.4375" style="stroke:#181818;stroke-width:1.0;"/><line style="stroke:#181818;stroke-width:1.0;stroke-dasharray:2.0,2.0;" x1="733.5" x2="872.5" y1="487.4375" y2="487.4375"/><text fill="#000000" font-family="sans-serif" font-size="13" lengthAdjust="spacing" textLength="95" x="745.5" y="482.5811">&#1055;&#1086;&#1076;&#1090;&#1074;&#1077;&#1088;&#1078;&#1076;&#1077;&#1085;&#1080;&#1077;</text><polygon fill="#181818" points="429.5,513.7891,419.5,517.7891,429.5,521.7891,425.5,517.7891" style="stroke:#181818;stroke-width:1.0;"/><line style="stroke:#181818;stroke-width:1.0;stroke-dasharray:2.0,2.0;" x1="423.5" x2="727.5" y1="517.7891" y2="517.7891"/><text fill="#000000" font-family="sans-serif" font-size="13" lengthAdjust="spacing" textLength="44" x="435.5" y="512.9326">200 OK</text><polygon fill="#181818" points="258.5,544.1406,248.5,548.1406,258.5,552.1406,254.5,548.1406" style="stroke:#181818;stroke-width:1.0;"/><line style="stroke:#181818;stroke-width:1.0;stroke-dasharray:2.0,2.0;" x1="252.5" x2="417.5" y1="548.1406" y2="548.1406"/><text fill="#000000" font-family="sans-serif" font-size="13" lengthAdjust="spacing" textLength="147" x="264.5" y="543.2842">&#1054;&#1073;&#1085;&#1086;&#1074;&#1083;&#1077;&#1085;&#1080;&#1077; &#1080;&#1085;&#1090;&#1077;&#1088;&#1092;&#1077;&#1081;&#1089;&#1072;</text><polygon fill="#181818" points="406.5,574.4922,416.5,578.4922,406.5,582.4922,410.5,578.4922" style="stroke:#181818;stroke-width:1.0;"/><line style="stroke:#181818;stroke-width:1.0;" x1="247.5" x2="412.5" y1="578.4922" y2="578.4922"/><text fill="#000000" font-family="sans-serif" font-size="13" lengthAdjust="spacing" textLength="122" x="254.5" y="573.6357">GET /api/next-lesson</text><polygon fill="#181818" points="585.5,604.8438,595.5,608.8438,585.5,612.8438,589.5,608.8438" style="stroke:#181818;stroke-width:1.0;"/><line style="stroke:#181818;stroke-width:1.0;" x1="418.5" x2="591.5" y1="608.8438" y2="608.8438"/><text fill="#000000" font-family="sans-serif" font-size="13" lengthAdjust="spacing" textLength="155" x="425.5" y="603.9873">&#1055;&#1086;&#1080;&#1089;&#1082; &#1089;&#1083;&#1077;&#1076;&#1091;&#1102;&#1097;&#1077;&#1075;&#1086; &#1091;&#1088;&#1086;&#1082;&#1072;</text><polygon fill="#181818" points="861.5,635.1953,871.5,639.1953,861.5,643.1953,865.5,639.1953" style="stroke:#181818;stroke-width:1.0;"/><line style="stroke:#181818;stroke-width:1.0;" x1="597.5" x2="867.5" y1="639.1953" y2="639.1953"/><text fill="#000000" font-family="sans-serif" font-size="13" lengthAdjust="spacing" textLength="145" x="604.5" y="634.3389">&#1047;&#1072;&#1087;&#1088;&#1086;&#1089; &#1089;&#1090;&#1088;&#1091;&#1082;&#1090;&#1091;&#1088;&#1099; &#1082;&#1091;&#1088;&#1089;&#1072;</text><polygon fill="#181818" points="608.5,665.5469,598.5,669.5469,608.5,673.5469,604.5,669.5469" style="stroke:#181818;stroke-width:1.0;"/><line style="stroke:#181818;stroke-width:1.0;stroke-dasharray:2.0,2.0;" x1="602.5" x2="872.5" y1="669.5469" y2="669.5469"/><text fill="#000000" font-family="sans-serif" font-size="13" lengthAdjust="spacing" textLength="102" x="614.5" y="664.6904">&#1044;&#1072;&#1085;&#1085;&#1099;&#1077; &#1084;&#1086;&#1076;&#1091;&#1083;&#1077;&#1081;</text><polygon fill="#181818" points="429.5,695.8984,419.5,699.8984,429.5,703.8984,425.5,699.8984" style="stroke:#181818;stroke-width:1.0;"/><line style="stroke:#181818;stroke-width:1.0;stroke-dasharray:2.0,2.0;" x1="423.5" x2="596.5" y1="699.8984" y2="699.8984"/><text fill="#000000" font-family="sans-serif" font-size="13" lengthAdjust="spacing" textLength="131" x="435.5" y="695.042">ID &#1089;&#1083;&#1077;&#1076;&#1091;&#1102;&#1097;&#1077;&#1075;&#1086; &#1091;&#1088;&#1086;&#1082;&#1072;</text><polygon fill="#181818" points="258.5,726.25,248.5,730.25,258.5,734.25,254.5,730.25" style="stroke:#181818;stroke-width:1.0;"/><line style="stroke:#181818;stroke-width:1.0;stroke-dasharray:2.0,2.0;" x1="252.5" x2="417.5" y1="730.25" y2="730.25"/><text fill="#000000" font-family="sans-serif" font-size="13" lengthAdjust="spacing" textLength="107" x="264.5" y="725.3936">&#1055;&#1077;&#1088;&#1077;&#1085;&#1072;&#1087;&#1088;&#1072;&#1074;&#1083;&#1077;&#1085;&#1080;&#1077;</text><!--SRC=[XLFBQXin5DtFLuZiZKENNXGABI5qaK3x0sFFD0m4ZvbHI4if-96ab41BIw2x6F_1EF4OsudjNxZwevuhoHFL4Sv6ev7kuvnpZsGYJsD1GzMbbRga5KrfGYKjQKQbK0C-fWKLGlLKNmtCdUhZy348mfPCCq4ZzqQ4kSZbMHItPT09CvcqaaxObcAF_Y1WNACrIixeGNUoVVOuwLEMRgUyEJuK1w6CpyClEkJ4xBVgZgX4oJkQgPwW1KDMFLI_qocjz2pBurqPQqtn7ci9ZZqgT5udIq-oEC-tCcyHiEJYM0lrIz1lkj7nKJC8B6rHUst8D0JzfO9BGvufTYNaqJfsyGFcwaeD78q3dSNfbcX37BpxAEfX9wcV0alQpkjVa-XROAyvql1hs0425pFZUM4UApkpDKgRECw8cXQN9iuAJ3IQfRfMbowQg2bgReURJTX_ngWgkx2XKrzZORuO2aBPD4_MgHWuMjtgkx4MP-gne5TWJdf4e-yRUMquDotuOyOxjwPcz7EFpiT77wpGrU0TaJTdt8_6rW0F5SJd5Wes6PNW8tvTTkuLDOm7BiA8T8xLssasHDM9LRBhFaodlilYrVw-E7hl5zU7UsQc0dzUu72kKUmoOJl-B6l6YNuFeW7U56J7mdqceFPJ_S3kdbO-qtZiQ1u8RBlGodJLzTEhtcrA687r6kZMSwyn3z- -2Csdtb0FW7KpE0jNnty0]--></g></svg>