<?xml version="1.0" encoding="us-ascii" standalone="no"?><svg xmlns="http://www.w3.org/2000/svg" xmlns:xlink="http://www.w3.org/1999/xlink" contentStyleType="text/css" height="708px" preserveAspectRatio="none" style="width:925px;height:708px;background:#FFFFFF;" version="1.1" viewBox="0 0 925 708" width="925px" zoomAndPan="magnify"><defs/><g><text fill="#000000" font-family="sans-serif" font-size="14" font-weight="bold" lengthAdjust="spacing" textLength="256" x="336.25" y="29.5332">&#1055;&#1088;&#1086;&#1074;&#1077;&#1088;&#1082;&#1072; &#1079;&#1072;&#1076;&#1072;&#1085;&#1080;&#1103; &#1087;&#1088;&#1077;&#1087;&#1086;&#1076;&#1072;&#1074;&#1072;&#1090;&#1077;&#1083;&#1077;&#1084;</text><line style="stroke:#181818;stroke-width:0.5;stroke-dasharray:5.0,5.0;" x1="59" x2="59" y1="121.2188" y2="626.8438"/><line style="stroke:#181818;stroke-width:0.5;stroke-dasharray:5.0,5.0;" x1="264.5" x2="264.5" y1="121.2188" y2="626.8438"/><line style="stroke:#181818;stroke-width:0.5;stroke-dasharray:5.0,5.0;" x1="442.5" x2="442.5" y1="121.2188" y2="626.8438"/><line style="stroke:#181818;stroke-width:0.5;stroke-dasharray:5.0,5.0;" x1="597" x2="597" y1="121.2188" y2="626.8438"/><line style="stroke:#181818;stroke-width:0.5;stroke-dasharray:5.0,5.0;" x1="766.5" x2="766.5" y1="121.2188" y2="626.8438"/><line style="stroke:#181818;stroke-width:0.5;stroke-dasharray:5.0,5.0;" x1="888.5" x2="888.5" y1="121.2188" y2="626.8438"/><text fill="#000000" font-family="sans-serif" font-size="14" lengthAdjust="spacing" textLength="103" x="5" y="118.1426">&#1055;&#1088;&#1077;&#1087;&#1086;&#1076;&#1072;&#1074;&#1072;&#1090;&#1077;&#1083;&#1100;</text><ellipse cx="59.5" cy="52.1094" fill="#E2E2F0" rx="8" ry="8" style="stroke:#181818;stroke-width:0.5;"/><path d="M59.5,60.1094 L59.5,87.1094 M46.5,68.1094 L72.5,68.1094 M59.5,87.1094 L46.5,102.1094 M59.5,87.1094 L72.5,102.1094 " fill="none" style="stroke:#181818;stroke-width:0.5;"/><text fill="#000000" font-family="sans-serif" font-size="14" lengthAdjust="spacing" textLength="103" x="5" y="640.377">&#1055;&#1088;&#1077;&#1087;&#1086;&#1076;&#1072;&#1074;&#1072;&#1090;&#1077;&#1083;&#1100;</text><ellipse cx="59.5" cy="651.9531" fill="#E2E2F0" rx="8" ry="8" style="stroke:#181818;stroke-width:0.5;"/><path d="M59.5,659.9531 L59.5,686.9531 M46.5,667.9531 L72.5,667.9531 M59.5,686.9531 L46.5,701.9531 M59.5,686.9531 L72.5,701.9531 " fill="none" style="stroke:#181818;stroke-width:0.5;"/><rect fill="#E2E2F0" height="31.6094" rx="2.5" ry="2.5" style="stroke:#181818;stroke-width:0.5;" width="110" x="209.5" y="88.6094"/><text fill="#000000" font-family="sans-serif" font-size="14" lengthAdjust="spacing" textLength="96" x="216.5" y="110.1426">&#1040;&#1076;&#1084;&#1080;&#1085;-&#1087;&#1072;&#1085;&#1077;&#1083;&#1100;</text><rect fill="#E2E2F0" height="31.6094" rx="2.5" ry="2.5" style="stroke:#181818;stroke-width:0.5;" width="110" x="209.5" y="625.8438"/><text fill="#000000" font-family="sans-serif" font-size="14" lengthAdjust="spacing" textLength="96" x="216.5" y="647.377">&#1040;&#1076;&#1084;&#1080;&#1085;-&#1087;&#1072;&#1085;&#1077;&#1083;&#1100;</text><rect fill="#E2E2F0" height="31.6094" rx="2.5" ry="2.5" style="stroke:#181818;stroke-width:0.5;" width="94" x="395.5" y="88.6094"/><text fill="#000000" font-family="sans-serif" font-size="14" lengthAdjust="spacing" textLength="80" x="402.5" y="110.1426">API Gateway</text><rect fill="#E2E2F0" height="31.6094" rx="2.5" ry="2.5" style="stroke:#181818;stroke-width:0.5;" width="94" x="395.5" y="625.8438"/><text fill="#000000" font-family="sans-serif" font-size="14" lengthAdjust="spacing" textLength="80" x="402.5" y="647.377">API Gateway</text><rect fill="#E2E2F0" height="31.6094" rx="2.5" ry="2.5" style="stroke:#181818;stroke-width:0.5;" width="109" x="543" y="88.6094"/><text fill="#000000" font-family="sans-serif" font-size="14" lengthAdjust="spacing" textLength="95" x="550" y="110.1426">&#1057;&#1077;&#1088;&#1074;&#1080;&#1089; &#1082;&#1091;&#1088;&#1089;&#1086;&#1074;</text><rect fill="#E2E2F0" height="31.6094" rx="2.5" ry="2.5" style="stroke:#181818;stroke-width:0.5;" width="109" x="543" y="625.8438"/><text fill="#000000" font-family="sans-serif" font-size="14" lengthAdjust="spacing" textLength="95" x="550" y="647.377">&#1057;&#1077;&#1088;&#1074;&#1080;&#1089; &#1082;&#1091;&#1088;&#1089;&#1086;&#1074;</text><rect fill="#E2E2F0" height="31.6094" rx="2.5" ry="2.5" style="stroke:#181818;stroke-width:0.5;" width="154" x="689.5" y="88.6094"/><text fill="#000000" font-family="sans-serif" font-size="14" lengthAdjust="spacing" textLength="140" x="696.5" y="110.1426">&#1057;&#1077;&#1088;&#1074;&#1080;&#1089; &#1091;&#1074;&#1077;&#1076;&#1086;&#1084;&#1083;&#1077;&#1085;&#1080;&#1081;</text><rect fill="#E2E2F0" height="31.6094" rx="2.5" ry="2.5" style="stroke:#181818;stroke-width:0.5;" width="154" x="689.5" y="625.8438"/><text fill="#000000" font-family="sans-serif" font-size="14" lengthAdjust="spacing" textLength="140" x="696.5" y="647.377">&#1057;&#1077;&#1088;&#1074;&#1080;&#1089; &#1091;&#1074;&#1077;&#1076;&#1086;&#1084;&#1083;&#1077;&#1085;&#1080;&#1081;</text><text fill="#000000" font-family="sans-serif" font-size="14" lengthAdjust="spacing" textLength="65" x="853.5" y="118.1426">&#1041;&#1044; &#1082;&#1091;&#1088;&#1089;&#1086;&#1074;</text><path d="M871,67.6094 C871,57.6094 889,57.6094 889,57.6094 C889,57.6094 907,57.6094 907,67.6094 L907,93.6094 C907,103.6094 889,103.6094 889,103.6094 C889,103.6094 871,103.6094 871,93.6094 L871,67.6094 " fill="#E2E2F0" style="stroke:#181818;stroke-width:1.5;"/><path d="M871,67.6094 C871,77.6094 889,77.6094 889,77.6094 C889,77.6094 907,77.6094 907,67.6094 " fill="none" style="stroke:#181818;stroke-width:1.5;"/><text fill="#000000" font-family="sans-serif" font-size="14" lengthAdjust="spacing" textLength="65" x="853.5" y="640.377">&#1041;&#1044; &#1082;&#1091;&#1088;&#1089;&#1086;&#1074;</text><path d="M871,653.4531 C871,643.4531 889,643.4531 889,643.4531 C889,643.4531 907,643.4531 907,653.4531 L907,679.4531 C907,689.4531 889,689.4531 889,689.4531 C889,689.4531 871,689.4531 871,679.4531 L871,653.4531 " fill="#E2E2F0" style="stroke:#181818;stroke-width:1.5;"/><path d="M871,653.4531 C871,663.4531 889,663.4531 889,663.4531 C889,663.4531 907,663.4531 907,653.4531 " fill="none" style="stroke:#181818;stroke-width:1.5;"/><polygon fill="#181818" points="252.5,149.5703,262.5,153.5703,252.5,157.5703,256.5,153.5703" style="stroke:#181818;stroke-width:1.0;"/><line style="stroke:#181818;stroke-width:1.0;" x1="59.5" x2="258.5" y1="153.5703" y2="153.5703"/><text fill="#000000" font-family="sans-serif" font-size="13" lengthAdjust="spacing" textLength="164" x="66.5" y="148.7139">&#1054;&#1090;&#1082;&#1088;&#1099;&#1074;&#1072;&#1077;&#1090; &#1088;&#1072;&#1073;&#1086;&#1090;&#1091; &#1089;&#1090;&#1091;&#1076;&#1077;&#1085;&#1090;&#1072;</text><polygon fill="#181818" points="430.5,179.9219,440.5,183.9219,430.5,187.9219,434.5,183.9219" style="stroke:#181818;stroke-width:1.0;"/><line style="stroke:#181818;stroke-width:1.0;" x1="264.5" x2="436.5" y1="183.9219" y2="183.9219"/><text fill="#000000" font-family="sans-serif" font-size="13" lengthAdjust="spacing" textLength="150" x="271.5" y="179.0654">GET /api/submissions/{id}</text><polygon fill="#181818" points="585.5,210.2734,595.5,214.2734,585.5,218.2734,589.5,214.2734" style="stroke:#181818;stroke-width:1.0;"/><line style="stroke:#181818;stroke-width:1.0;" x1="442.5" x2="591.5" y1="214.2734" y2="214.2734"/><text fill="#000000" font-family="sans-serif" font-size="13" lengthAdjust="spacing" textLength="89" x="449.5" y="209.417">&#1047;&#1072;&#1087;&#1088;&#1086;&#1089; &#1088;&#1072;&#1073;&#1086;&#1090;&#1099;</text><polygon fill="#181818" points="877,240.625,887,244.625,877,248.625,881,244.625" style="stroke:#181818;stroke-width:1.0;"/><line style="stroke:#181818;stroke-width:1.0;" x1="597.5" x2="883" y1="244.625" y2="244.625"/><text fill="#000000" font-family="sans-serif" font-size="13" lengthAdjust="spacing" textLength="114" x="604.5" y="239.7686">&#1055;&#1086;&#1083;&#1091;&#1095;&#1077;&#1085;&#1080;&#1077; &#1076;&#1072;&#1085;&#1085;&#1099;&#1093;</text><polygon fill="#181818" points="608.5,270.9766,598.5,274.9766,608.5,278.9766,604.5,274.9766" style="stroke:#181818;stroke-width:1.0;"/><line style="stroke:#181818;stroke-width:1.0;stroke-dasharray:2.0,2.0;" x1="602.5" x2="888" y1="274.9766" y2="274.9766"/><text fill="#000000" font-family="sans-serif" font-size="13" lengthAdjust="spacing" textLength="96" x="614.5" y="270.1201">&#1060;&#1072;&#1081;&#1083;&#1099; &#1080; &#1086;&#1090;&#1074;&#1077;&#1090;&#1099;</text><polygon fill="#181818" points="453.5,301.3281,443.5,305.3281,453.5,309.3281,449.5,305.3281" style="stroke:#181818;stroke-width:1.0;"/><line style="stroke:#181818;stroke-width:1.0;stroke-dasharray:2.0,2.0;" x1="447.5" x2="596.5" y1="305.3281" y2="305.3281"/><text fill="#000000" font-family="sans-serif" font-size="13" lengthAdjust="spacing" textLength="131" x="459.5" y="300.4717">&#1044;&#1072;&#1085;&#1085;&#1099;&#1077; &#1076;&#1083;&#1103; &#1087;&#1088;&#1086;&#1074;&#1077;&#1088;&#1082;&#1080;</text><polygon fill="#181818" points="275.5,331.6797,265.5,335.6797,275.5,339.6797,271.5,335.6797" style="stroke:#181818;stroke-width:1.0;"/><line style="stroke:#181818;stroke-width:1.0;stroke-dasharray:2.0,2.0;" x1="269.5" x2="441.5" y1="335.6797" y2="335.6797"/><text fill="#000000" font-family="sans-serif" font-size="13" lengthAdjust="spacing" textLength="126" x="281.5" y="330.8232">&#1054;&#1090;&#1086;&#1073;&#1088;&#1072;&#1078;&#1077;&#1085;&#1080;&#1077; &#1088;&#1072;&#1073;&#1086;&#1090;&#1099;</text><polygon fill="#181818" points="252.5,362.0313,262.5,366.0313,252.5,370.0313,256.5,366.0313" style="stroke:#181818;stroke-width:1.0;"/><line style="stroke:#181818;stroke-width:1.0;" x1="59.5" x2="258.5" y1="366.0313" y2="366.0313"/><text fill="#000000" font-family="sans-serif" font-size="13" lengthAdjust="spacing" textLength="181" x="66.5" y="361.1748">&#1042;&#1074;&#1086;&#1076;&#1080;&#1090; &#1086;&#1094;&#1077;&#1085;&#1082;&#1091; &#1080; &#1082;&#1086;&#1084;&#1084;&#1077;&#1085;&#1090;&#1072;&#1088;&#1080;&#1081;</text><polygon fill="#181818" points="430.5,392.3828,440.5,396.3828,430.5,400.3828,434.5,396.3828" style="stroke:#181818;stroke-width:1.0;"/><line style="stroke:#181818;stroke-width:1.0;" x1="264.5" x2="436.5" y1="396.3828" y2="396.3828"/><text fill="#000000" font-family="sans-serif" font-size="13" lengthAdjust="spacing" textLength="93" x="271.5" y="391.5264">PUT /api/grades</text><polygon fill="#181818" points="585.5,422.7344,595.5,426.7344,585.5,430.7344,589.5,426.7344" style="stroke:#181818;stroke-width:1.0;"/><line style="stroke:#181818;stroke-width:1.0;" x1="442.5" x2="591.5" y1="426.7344" y2="426.7344"/><text fill="#000000" font-family="sans-serif" font-size="13" lengthAdjust="spacing" textLength="117" x="449.5" y="421.8779">&#1057;&#1086;&#1093;&#1088;&#1072;&#1085;&#1077;&#1085;&#1080;&#1077; &#1086;&#1094;&#1077;&#1085;&#1082;&#1080;</text><polygon fill="#181818" points="877,453.0859,887,457.0859,877,461.0859,881,457.0859" style="stroke:#181818;stroke-width:1.0;"/><line style="stroke:#181818;stroke-width:1.0;" x1="597.5" x2="883" y1="457.0859" y2="457.0859"/><text fill="#000000" font-family="sans-serif" font-size="13" lengthAdjust="spacing" textLength="118" x="604.5" y="452.2295">&#1054;&#1073;&#1085;&#1086;&#1074;&#1083;&#1077;&#1085;&#1080;&#1077; &#1079;&#1072;&#1087;&#1080;&#1089;&#1080;</text><polygon fill="#181818" points="608.5,483.4375,598.5,487.4375,608.5,491.4375,604.5,487.4375" style="stroke:#181818;stroke-width:1.0;"/><line style="stroke:#181818;stroke-width:1.0;stroke-dasharray:2.0,2.0;" x1="602.5" x2="888" y1="487.4375" y2="487.4375"/><text fill="#000000" font-family="sans-serif" font-size="13" lengthAdjust="spacing" textLength="95" x="614.5" y="482.5811">&#1055;&#1086;&#1076;&#1090;&#1074;&#1077;&#1088;&#1078;&#1076;&#1077;&#1085;&#1080;&#1077;</text><polygon fill="#181818" points="754.5,513.7891,764.5,517.7891,754.5,521.7891,758.5,517.7891" style="stroke:#181818;stroke-width:1.0;"/><line style="stroke:#181818;stroke-width:1.0;" x1="597.5" x2="760.5" y1="517.7891" y2="517.7891"/><text fill="#000000" font-family="sans-serif" font-size="13" lengthAdjust="spacing" textLength="145" x="604.5" y="512.9326">&#1047;&#1072;&#1087;&#1088;&#1086;&#1089; &#1085;&#1072; &#1091;&#1074;&#1077;&#1076;&#1086;&#1084;&#1083;&#1077;&#1085;&#1080;&#1077;</text><polygon fill="#181818" points="608.5,544.1406,598.5,548.1406,608.5,552.1406,604.5,548.1406" style="stroke:#181818;stroke-width:1.0;"/><line style="stroke:#181818;stroke-width:1.0;stroke-dasharray:2.0,2.0;" x1="602.5" x2="765.5" y1="548.1406" y2="548.1406"/><text fill="#000000" font-family="sans-serif" font-size="13" lengthAdjust="spacing" textLength="49" x="614.5" y="543.2842">&#1055;&#1088;&#1080;&#1085;&#1103;&#1090;&#1086;</text><polygon fill="#181818" points="453.5,574.4922,443.5,578.4922,453.5,582.4922,449.5,578.4922" style="stroke:#181818;stroke-width:1.0;"/><line style="stroke:#181818;stroke-width:1.0;stroke-dasharray:2.0,2.0;" x1="447.5" x2="596.5" y1="578.4922" y2="578.4922"/><text fill="#000000" font-family="sans-serif" font-size="13" lengthAdjust="spacing" textLength="44" x="459.5" y="573.6357">200 OK</text><polygon fill="#181818" points="275.5,604.8438,265.5,608.8438,275.5,612.8438,271.5,608.8438" style="stroke:#181818;stroke-width:1.0;"/><line style="stroke:#181818;stroke-width:1.0;stroke-dasharray:2.0,2.0;" x1="269.5" x2="441.5" y1="608.8438" y2="608.8438"/><text fill="#000000" font-family="sans-serif" font-size="13" lengthAdjust="spacing" textLength="154" x="281.5" y="603.9873">&#1055;&#1086;&#1076;&#1090;&#1074;&#1077;&#1088;&#1078;&#1076;&#1077;&#1085;&#1080;&#1077; &#1087;&#1088;&#1086;&#1074;&#1077;&#1088;&#1082;&#1080;</text><!--SRC=[VLFBQjjG5DpVhpXaRnowp2BGHGcbYsQHVi2LfRON6jj82Y64WX-aNRYGjWIwImZq0nHZjufjoRzmxXzrpfKKrvBRXR4jpyoPcNCSc_X3G7nd1vppbETuNt12_9iJdk6LSMglYTTuFkSrCF9moeaTuViIhvLIkXFtma9Z1yP-8HrH7EZE-o1KVHt6fcFwkXlJ7dy5TCKfPotmP9Z3xmb1-wUckmr_VloIZdGSdEkB0j8tDRrx5s0ApqFYXHtRWHrABWVlzCx2A8Z-Gx5ZgG2UShYIS4ZFZuxSxSNcxONoTQmz7GKWVkERvWpVKwgCIgt38iG1yIsgM00uaLemS4IOcV03vtPansI7yeQvc0XaeXpF2VJD0HszEA4sFhMZC-_KH97fTQFsfV4_AZmKL9aCWtv0LNQLIvhDY8ag8OBsFG3lO7a9yv_Bb7CgrvtPYRrIlaUjBU6V-F4HZ0bnIgBfZcLBkRBBDvLGeRgi3cXpO6dXlDPGpW_EywydJriHTXNx7P9oRoag1UoJOs8fpkN2xN5LjGenRBFMxV6RijjteVPn78r6xo5xvNnacwgU9Y59lTbR6CvSrkM687-djTmO28rkPHUpij41qiygtj_QnG7MLWnOiljgvweWr4Uv4Z9xBNKtL_TiVvzUlseivvy66tlz0m00]--></g></svg>