<?xml version="1.0" encoding="us-ascii" standalone="no"?><svg xmlns="http://www.w3.org/2000/svg" xmlns:xlink="http://www.w3.org/1999/xlink" contentStyleType="text/css" height="1684px" preserveAspectRatio="none" style="width:951px;height:1684px;background:#FFFFFF;" version="1.1" viewBox="0 0 951 1684" width="951px" zoomAndPan="magnify"><defs/><g><!--class user--><g id="elem_user"><rect codeLine="5" fill="#F1F1F1" height="254.9219" id="user" rx="2.5" ry="2.5" style="stroke:#181818;stroke-width:0.5;" width="237" x="392" y="7"/><text fill="#000000" font-family="sans-serif" font-size="14" lengthAdjust="spacing" textLength="93" x="464" y="26.5332">&#1055;&#1086;&#1083;&#1100;&#1079;&#1086;&#1074;&#1072;&#1090;&#1077;&#1083;&#1100;</text><line style="stroke:#181818;stroke-width:0.5;" x1="393" x2="628" y1="34.6094" y2="34.6094"/><ellipse cx="403" cy="48.9141" fill="#84BE84" rx="3" ry="3" style="stroke:#038048;stroke-width:1.0;"/><text fill="#000000" font-family="sans-serif" font-size="14" lengthAdjust="spacing" textLength="43" x="412" y="53.1426">id (PK)</text><line style="stroke:#181818;stroke-width:1.0;" x1="393" x2="628" y1="60.2188" y2="60.2188"/><ellipse cx="403" cy="74.5234" fill="#000000" rx="3" ry="3" style="stroke:#000000;stroke-width:1.0;"/><text fill="#000000" font-family="sans-serif" font-size="14" lengthAdjust="spacing" textLength="104" x="412" y="78.752">institution_id (fk)</text><ellipse cx="403" cy="92.1328" fill="#000000" rx="3" ry="3" style="stroke:#000000;stroke-width:1.0;"/><text fill="#000000" font-family="sans-serif" font-size="14" lengthAdjust="spacing" textLength="141" x="412" y="96.3613">email: VARCHAR(255)</text><ellipse cx="403" cy="109.7422" fill="#000000" rx="3" ry="3" style="stroke:#000000;stroke-width:1.0;"/><text fill="#000000" font-family="sans-serif" font-size="14" lengthAdjust="spacing" textLength="211" x="412" y="113.9707">password_hash:  VARCHAR(255)</text><ellipse cx="403" cy="127.3516" fill="#000000" rx="3" ry="3" style="stroke:#000000;stroke-width:1.0;"/><text fill="#000000" font-family="sans-serif" font-size="14" lengthAdjust="spacing" textLength="170" x="412" y="131.5801">first_name:  VARCHAR(50)</text><ellipse cx="403" cy="144.9609" fill="#000000" rx="3" ry="3" style="stroke:#000000;stroke-width:1.0;"/><text fill="#000000" font-family="sans-serif" font-size="14" lengthAdjust="spacing" textLength="165" x="412" y="149.1895">last_name: VARCHAR(50)</text><ellipse cx="403" cy="162.5703" fill="#000000" rx="3" ry="3" style="stroke:#000000;stroke-width:1.0;"/><text fill="#000000" font-family="sans-serif" font-size="14" lengthAdjust="spacing" textLength="70" x="412" y="166.7988">role: ENUM</text><ellipse cx="403" cy="180.1797" fill="#000000" rx="3" ry="3" style="stroke:#000000;stroke-width:1.0;"/><text fill="#000000" font-family="sans-serif" font-size="14" lengthAdjust="spacing" textLength="140" x="412" y="184.4082">phone: VARCHAR(20)</text><ellipse cx="403" cy="197.7891" fill="#000000" rx="3" ry="3" style="stroke:#000000;stroke-width:1.0;"/><text fill="#000000" font-family="sans-serif" font-size="14" lengthAdjust="spacing" textLength="172" x="412" y="202.0176">avatar_url: VARCHAR(255)</text><ellipse cx="403" cy="215.3984" fill="#000000" rx="3" ry="3" style="stroke:#000000;stroke-width:1.0;"/><text fill="#000000" font-family="sans-serif" font-size="14" lengthAdjust="spacing" textLength="155" x="412" y="219.627">created_at: TIMESTAMP</text><ellipse cx="403" cy="233.0078" fill="#000000" rx="3" ry="3" style="stroke:#000000;stroke-width:1.0;"/><text fill="#000000" font-family="sans-serif" font-size="14" lengthAdjust="spacing" textLength="129" x="412" y="237.2363">is_active: BOOLEAN</text><ellipse cx="403" cy="250.6172" fill="#000000" rx="3" ry="3" style="stroke:#000000;stroke-width:1.0;"/><text fill="#000000" font-family="sans-serif" font-size="14" lengthAdjust="spacing" textLength="147" x="412" y="254.8457">last_login: TIMESTAMP</text></g><!--class institution--><g id="elem_institution"><rect codeLine="21" fill="#F1F1F1" height="237.3125" id="institution" rx="2.5" ry="2.5" style="stroke:#181818;stroke-width:0.5;" width="233" x="148" y="322"/><text fill="#000000" font-family="sans-serif" font-size="14" lengthAdjust="spacing" textLength="129" x="200" y="341.5332">&#1059;&#1095;&#1077;&#1073;&#1085;&#1086;&#1077; &#1079;&#1072;&#1074;&#1077;&#1076;&#1077;&#1085;&#1080;&#1077;</text><line style="stroke:#181818;stroke-width:0.5;" x1="149" x2="380" y1="349.6094" y2="349.6094"/><ellipse cx="159" cy="363.9141" fill="#84BE84" rx="3" ry="3" style="stroke:#038048;stroke-width:1.0;"/><text fill="#000000" font-family="sans-serif" font-size="14" lengthAdjust="spacing" textLength="43" x="168" y="368.1426">id (PK)</text><line style="stroke:#181818;stroke-width:1.0;" x1="149" x2="380" y1="375.2188" y2="375.2188"/><ellipse cx="159" cy="389.5234" fill="#000000" rx="3" ry="3" style="stroke:#000000;stroke-width:1.0;"/><text fill="#000000" font-family="sans-serif" font-size="14" lengthAdjust="spacing" textLength="143" x="168" y="393.752">name: VARCHAR(200)</text><ellipse cx="159" cy="407.1328" fill="#000000" rx="3" ry="3" style="stroke:#000000;stroke-width:1.0;"/><text fill="#000000" font-family="sans-serif" font-size="14" lengthAdjust="spacing" textLength="175" x="168" y="411.3613">short_name: VARCHAR(50)</text><ellipse cx="159" cy="424.7422" fill="#000000" rx="3" ry="3" style="stroke:#000000;stroke-width:1.0;"/><text fill="#000000" font-family="sans-serif" font-size="14" lengthAdjust="spacing" textLength="132" x="168" y="428.9707">tax_id: VARCHAR(20</text><ellipse cx="159" cy="442.3516" fill="#000000" rx="3" ry="3" style="stroke:#000000;stroke-width:1.0;"/><text fill="#000000" font-family="sans-serif" font-size="14" lengthAdjust="spacing" textLength="132" x="168" y="446.5801">legal_address: TEXT</text><ellipse cx="159" cy="459.9609" fill="#000000" rx="3" ry="3" style="stroke:#000000;stroke-width:1.0;"/><text fill="#000000" font-family="sans-serif" font-size="14" lengthAdjust="spacing" textLength="195" x="168" y="464.1895">contact_email: VARCHAR(255)</text><ellipse cx="159" cy="477.5703" fill="#000000" rx="3" ry="3" style="stroke:#000000;stroke-width:1.0;"/><text fill="#000000" font-family="sans-serif" font-size="14" lengthAdjust="spacing" textLength="155" x="168" y="481.7988">website: VARCHAR(255)</text><ellipse cx="159" cy="495.1797" fill="#000000" rx="3" ry="3" style="stroke:#000000;stroke-width:1.0;"/><text fill="#000000" font-family="sans-serif" font-size="14" lengthAdjust="spacing" textLength="159" x="168" y="499.4082">logo_url: VARCHAR(255)</text><ellipse cx="159" cy="512.7891" fill="#000000" rx="3" ry="3" style="stroke:#000000;stroke-width:1.0;"/><text fill="#000000" font-family="sans-serif" font-size="14" lengthAdjust="spacing" textLength="207" x="168" y="517.0176">contract_number: VARCHAR(50)</text><ellipse cx="159" cy="530.3984" fill="#000000" rx="3" ry="3" style="stroke:#000000;stroke-width:1.0;"/><text fill="#000000" font-family="sans-serif" font-size="14" lengthAdjust="spacing" textLength="132" x="168" y="534.627">contract_date: DATE</text><ellipse cx="159" cy="548.0078" fill="#000000" rx="3" ry="3" style="stroke:#000000;stroke-width:1.0;"/><text fill="#000000" font-family="sans-serif" font-size="14" lengthAdjust="spacing" textLength="138" x="168" y="552.2363">is_verified: BOOLEAN</text></g><!--class course--><g id="elem_course"><rect codeLine="36" fill="#F1F1F1" height="290.1406" id="course" rx="2.5" ry="2.5" style="stroke:#181818;stroke-width:0.5;" width="243" x="228" y="619"/><text fill="#000000" font-family="sans-serif" font-size="14" lengthAdjust="spacing" textLength="30" x="334.5" y="638.5332">&#1050;&#1091;&#1088;&#1089;</text><line style="stroke:#181818;stroke-width:0.5;" x1="229" x2="470" y1="646.6094" y2="646.6094"/><ellipse cx="239" cy="660.9141" fill="#84BE84" rx="3" ry="3" style="stroke:#038048;stroke-width:1.0;"/><text fill="#000000" font-family="sans-serif" font-size="14" lengthAdjust="spacing" textLength="43" x="248" y="665.1426">id (PK)</text><line style="stroke:#181818;stroke-width:1.0;" x1="229" x2="470" y1="672.2188" y2="672.2188"/><ellipse cx="239" cy="686.5234" fill="#000000" rx="3" ry="3" style="stroke:#000000;stroke-width:1.0;"/><text fill="#000000" font-family="sans-serif" font-size="14" lengthAdjust="spacing" textLength="130" x="248" y="690.752">title: VARCHAR(150)</text><ellipse cx="239" cy="704.1328" fill="#000000" rx="3" ry="3" style="stroke:#000000;stroke-width:1.0;"/><text fill="#000000" font-family="sans-serif" font-size="14" lengthAdjust="spacing" textLength="134" x="248" y="708.3613">slug: VARCHAR(170)</text><ellipse cx="239" cy="721.7422" fill="#000000" rx="3" ry="3" style="stroke:#000000;stroke-width:1.0;"/><text fill="#000000" font-family="sans-serif" font-size="14" lengthAdjust="spacing" textLength="112" x="248" y="725.9707">description: TEXT</text><ellipse cx="239" cy="739.3516" fill="#000000" rx="3" ry="3" style="stroke:#000000;stroke-width:1.0;"/><text fill="#000000" font-family="sans-serif" font-size="14" lengthAdjust="spacing" textLength="217" x="248" y="743.5801">short_description: VARCHAR(300)</text><ellipse cx="239" cy="756.9609" fill="#000000" rx="3" ry="3" style="stroke:#000000;stroke-width:1.0;"/><text fill="#000000" font-family="sans-serif" font-size="14" lengthAdjust="spacing" textLength="213" x="248" y="761.1895">cover_image_url: VARCHAR(255)</text><ellipse cx="239" cy="774.5703" fill="#000000" rx="3" ry="3" style="stroke:#000000;stroke-width:1.0;"/><text fill="#000000" font-family="sans-serif" font-size="14" lengthAdjust="spacing" textLength="84" x="248" y="778.7988">status: ENUM</text><ellipse cx="239" cy="792.1797" fill="#000000" rx="3" ry="3" style="stroke:#000000;stroke-width:1.0;"/><text fill="#000000" font-family="sans-serif" font-size="14" lengthAdjust="spacing" textLength="137" x="248" y="796.4082">price: DECIMAL(10,2)</text><ellipse cx="239" cy="809.7891" fill="#000000" rx="3" ry="3" style="stroke:#000000;stroke-width:1.0;"/><text fill="#000000" font-family="sans-serif" font-size="14" lengthAdjust="spacing" textLength="125" x="248" y="814.0176">duration_hours: INT</text><ellipse cx="239" cy="827.3984" fill="#000000" rx="3" ry="3" style="stroke:#000000;stroke-width:1.0;"/><text fill="#000000" font-family="sans-serif" font-size="14" lengthAdjust="spacing" textLength="75" x="248" y="831.627">level: ENUM</text><ellipse cx="239" cy="845.0078" fill="#000000" rx="3" ry="3" style="stroke:#000000;stroke-width:1.0;"/><text fill="#000000" font-family="sans-serif" font-size="14" lengthAdjust="spacing" textLength="103" x="248" y="849.2363">creator_id: UUID</text><ellipse cx="239" cy="862.6172" fill="#000000" rx="3" ry="3" style="stroke:#000000;stroke-width:1.0;"/><text fill="#000000" font-family="sans-serif" font-size="14" lengthAdjust="spacing" textLength="118" x="248" y="866.8457">institution_id: UUID</text><ellipse cx="239" cy="880.2266" fill="#000000" rx="3" ry="3" style="stroke:#000000;stroke-width:1.0;"/><text fill="#000000" font-family="sans-serif" font-size="14" lengthAdjust="spacing" textLength="155" x="248" y="884.4551">created_at: TIMESTAMP</text><ellipse cx="239" cy="897.8359" fill="#000000" rx="3" ry="3" style="stroke:#000000;stroke-width:1.0;"/><text fill="#000000" font-family="sans-serif" font-size="14" lengthAdjust="spacing" textLength="154" x="248" y="902.0645">deleted_at: TIMESTAMP</text></g><!--class module--><g id="elem_module"><rect codeLine="54" fill="#F1F1F1" height="149.2656" id="module" rx="2.5" ry="2.5" style="stroke:#181818;stroke-width:0.5;" width="199" x="122" y="986.5"/><text fill="#000000" font-family="sans-serif" font-size="14" lengthAdjust="spacing" textLength="50" x="196.5" y="1006.0332">&#1052;&#1086;&#1076;&#1091;&#1083;&#1100;</text><line style="stroke:#181818;stroke-width:0.5;" x1="123" x2="320" y1="1014.1094" y2="1014.1094"/><ellipse cx="133" cy="1028.4141" fill="#84BE84" rx="3" ry="3" style="stroke:#038048;stroke-width:1.0;"/><text fill="#000000" font-family="sans-serif" font-size="14" lengthAdjust="spacing" textLength="43" x="142" y="1032.6426">id (PK)</text><line style="stroke:#181818;stroke-width:1.0;" x1="123" x2="320" y1="1039.7188" y2="1039.7188"/><ellipse cx="133" cy="1054.0234" fill="#000000" rx="3" ry="3" style="stroke:#000000;stroke-width:1.0;"/><text fill="#000000" font-family="sans-serif" font-size="14" lengthAdjust="spacing" textLength="163" x="142" y="1058.252">course_id: FOREIGN KEY</text><ellipse cx="133" cy="1071.6328" fill="#000000" rx="3" ry="3" style="stroke:#000000;stroke-width:1.0;"/><text fill="#000000" font-family="sans-serif" font-size="14" lengthAdjust="spacing" textLength="130" x="142" y="1075.8613">title: VARCHAR(100)</text><ellipse cx="133" cy="1089.2422" fill="#000000" rx="3" ry="3" style="stroke:#000000;stroke-width:1.0;"/><text fill="#000000" font-family="sans-serif" font-size="14" lengthAdjust="spacing" textLength="119" x="142" y="1093.4707">order_number: INT</text><ellipse cx="133" cy="1106.8516" fill="#000000" rx="3" ry="3" style="stroke:#000000;stroke-width:1.0;"/><text fill="#000000" font-family="sans-serif" font-size="14" lengthAdjust="spacing" textLength="106" x="142" y="1111.0801">objectives: TEXT</text><ellipse cx="133" cy="1124.4609" fill="#000000" rx="3" ry="3" style="stroke:#000000;stroke-width:1.0;"/><text fill="#000000" font-family="sans-serif" font-size="14" lengthAdjust="spacing" textLength="173" x="142" y="1128.6895">is_free_preview: BOOLEAN</text></g><!--class lesson--><g id="elem_lesson"><rect codeLine="64" fill="#F1F1F1" height="219.7031" id="lesson" rx="2.5" ry="2.5" style="stroke:#181818;stroke-width:0.5;" width="194" x="124.5" y="1213"/><text fill="#000000" font-family="sans-serif" font-size="14" lengthAdjust="spacing" textLength="31" x="206" y="1232.5332">&#1059;&#1088;&#1086;&#1082;</text><line style="stroke:#181818;stroke-width:0.5;" x1="125.5" x2="317.5" y1="1240.6094" y2="1240.6094"/><ellipse cx="135.5" cy="1254.9141" fill="#84BE84" rx="3" ry="3" style="stroke:#038048;stroke-width:1.0;"/><text fill="#000000" font-family="sans-serif" font-size="14" lengthAdjust="spacing" textLength="43" x="144.5" y="1259.1426">id (PK)</text><line style="stroke:#181818;stroke-width:1.0;" x1="125.5" x2="317.5" y1="1266.2188" y2="1266.2188"/><ellipse cx="135.5" cy="1280.5234" fill="#000000" rx="3" ry="3" style="stroke:#000000;stroke-width:1.0;"/><text fill="#000000" font-family="sans-serif" font-size="14" lengthAdjust="spacing" textLength="166" x="144.5" y="1284.752">module_id: FOREIGN KEY</text><ellipse cx="135.5" cy="1298.1328" fill="#000000" rx="3" ry="3" style="stroke:#000000;stroke-width:1.0;"/><text fill="#000000" font-family="sans-serif" font-size="14" lengthAdjust="spacing" textLength="130" x="144.5" y="1302.3613">title: VARCHAR(200)</text><ellipse cx="135.5" cy="1315.7422" fill="#000000" rx="3" ry="3" style="stroke:#000000;stroke-width:1.0;"/><text fill="#000000" font-family="sans-serif" font-size="14" lengthAdjust="spacing" textLength="122" x="144.5" y="1319.9707">lesson_type: ENUM</text><ellipse cx="135.5" cy="1333.3516" fill="#000000" rx="3" ry="3" style="stroke:#000000;stroke-width:1.0;"/><text fill="#000000" font-family="sans-serif" font-size="14" lengthAdjust="spacing" textLength="138" x="144.5" y="1337.5801">duration_minutes: INT</text><ellipse cx="135.5" cy="1350.9609" fill="#000000" rx="3" ry="3" style="stroke:#000000;stroke-width:1.0;"/><text fill="#000000" font-family="sans-serif" font-size="14" lengthAdjust="spacing" textLength="90" x="144.5" y="1355.1895">content: TEXT</text><ellipse cx="135.5" cy="1368.5703" fill="#000000" rx="3" ry="3" style="stroke:#000000;stroke-width:1.0;"/><text fill="#000000" font-family="sans-serif" font-size="14" lengthAdjust="spacing" textLength="166" x="144.5" y="1372.7988">video_url: VARCHAR(255)</text><ellipse cx="135.5" cy="1386.1797" fill="#000000" rx="3" ry="3" style="stroke:#000000;stroke-width:1.0;"/><text fill="#000000" font-family="sans-serif" font-size="14" lengthAdjust="spacing" textLength="153" x="144.5" y="1390.4082">is_published: BOOLEAN</text><ellipse cx="135.5" cy="1403.7891" fill="#000000" rx="3" ry="3" style="stroke:#000000;stroke-width:1.0;"/><text fill="#000000" font-family="sans-serif" font-size="14" lengthAdjust="spacing" textLength="168" x="144.5" y="1408.0176">published_at: TIMESTAMP</text><ellipse cx="135.5" cy="1421.3984" fill="#000000" rx="3" ry="3" style="stroke:#000000;stroke-width:1.0;"/><text fill="#000000" font-family="sans-serif" font-size="14" lengthAdjust="spacing" textLength="121" x="144.5" y="1425.627">deadline_days: INT</text></g><!--class resource--><g id="elem_resource"><rect codeLine="78" fill="#F1F1F1" height="166.875" id="resource" rx="2.5" ry="2.5" style="stroke:#181818;stroke-width:0.5;" width="195" x="7" y="1501.5"/><text fill="#000000" font-family="sans-serif" font-size="14" lengthAdjust="spacing" textLength="66" x="71.5" y="1521.0332">&#1052;&#1072;&#1090;&#1077;&#1088;&#1080;&#1072;&#1083;</text><line style="stroke:#181818;stroke-width:0.5;" x1="8" x2="201" y1="1529.1094" y2="1529.1094"/><ellipse cx="18" cy="1543.4141" fill="#84BE84" rx="3" ry="3" style="stroke:#038048;stroke-width:1.0;"/><text fill="#000000" font-family="sans-serif" font-size="14" lengthAdjust="spacing" textLength="43" x="27" y="1547.6426">id (PK)</text><line style="stroke:#181818;stroke-width:1.0;" x1="8" x2="201" y1="1554.7188" y2="1554.7188"/><ellipse cx="18" cy="1569.0234" fill="#000000" rx="3" ry="3" style="stroke:#000000;stroke-width:1.0;"/><text fill="#000000" font-family="sans-serif" font-size="14" lengthAdjust="spacing" textLength="161" x="27" y="1573.252">lesson_id: FOREIGN KEY</text><ellipse cx="18" cy="1586.6328" fill="#000000" rx="3" ry="3" style="stroke:#000000;stroke-width:1.0;"/><text fill="#000000" font-family="sans-serif" font-size="14" lengthAdjust="spacing" textLength="169" x="27" y="1590.8613">file_name: VARCHAR(255)</text><ellipse cx="18" cy="1604.2422" fill="#000000" rx="3" ry="3" style="stroke:#000000;stroke-width:1.0;"/><text fill="#000000" font-family="sans-serif" font-size="14" lengthAdjust="spacing" textLength="153" x="27" y="1608.4707">file_type: VARCHAR(50)</text><ellipse cx="18" cy="1621.8516" fill="#000000" rx="3" ry="3" style="stroke:#000000;stroke-width:1.0;"/><text fill="#000000" font-family="sans-serif" font-size="14" lengthAdjust="spacing" textLength="102" x="27" y="1626.0801">file_size: BIGINT</text><ellipse cx="18" cy="1639.4609" fill="#000000" rx="3" ry="3" style="stroke:#000000;stroke-width:1.0;"/><text fill="#000000" font-family="sans-serif" font-size="14" lengthAdjust="spacing" textLength="153" x="27" y="1643.6895">s3_key: VARCHAR(255)</text><ellipse cx="18" cy="1657.0703" fill="#000000" rx="3" ry="3" style="stroke:#000000;stroke-width:1.0;"/><text fill="#000000" font-family="sans-serif" font-size="14" lengthAdjust="spacing" textLength="132" x="27" y="1661.2988">download_count: INT</text></g><!--class progress--><g id="elem_progress"><rect codeLine="89" fill="#F1F1F1" height="184.4844" id="progress" rx="2.5" ry="2.5" style="stroke:#181818;stroke-width:0.5;" width="198" x="487.5" y="348.5"/><text fill="#000000" font-family="sans-serif" font-size="14" lengthAdjust="spacing" textLength="60" x="556.5" y="368.0332">&#1055;&#1088;&#1086;&#1075;&#1088;&#1077;&#1089;&#1089;</text><line style="stroke:#181818;stroke-width:0.5;" x1="488.5" x2="684.5" y1="376.1094" y2="376.1094"/><ellipse cx="498.5" cy="390.4141" fill="#84BE84" rx="3" ry="3" style="stroke:#038048;stroke-width:1.0;"/><text fill="#000000" font-family="sans-serif" font-size="14" lengthAdjust="spacing" textLength="43" x="507.5" y="394.6426">id (PK)</text><line style="stroke:#181818;stroke-width:1.0;" x1="488.5" x2="684.5" y1="401.7188" y2="401.7188"/><ellipse cx="498.5" cy="416.0234" fill="#000000" rx="3" ry="3" style="stroke:#000000;stroke-width:1.0;"/><text fill="#000000" font-family="sans-serif" font-size="14" lengthAdjust="spacing" textLength="148" x="507.5" y="420.252">user_id: FOREIGN KEY</text><ellipse cx="498.5" cy="433.6328" fill="#000000" rx="3" ry="3" style="stroke:#000000;stroke-width:1.0;"/><text fill="#000000" font-family="sans-serif" font-size="14" lengthAdjust="spacing" textLength="161" x="507.5" y="437.8613">lesson_id: FOREIGN KEY</text><ellipse cx="498.5" cy="451.2422" fill="#000000" rx="3" ry="3" style="stroke:#000000;stroke-width:1.0;"/><text fill="#000000" font-family="sans-serif" font-size="14" lengthAdjust="spacing" textLength="84" x="507.5" y="455.4707">status: ENUM</text><ellipse cx="498.5" cy="468.8516" fill="#000000" rx="3" ry="3" style="stroke:#000000;stroke-width:1.0;"/><text fill="#000000" font-family="sans-serif" font-size="14" lengthAdjust="spacing" textLength="151" x="507.5" y="473.0801">started_at: TIMESTAMP</text><ellipse cx="498.5" cy="486.4609" fill="#000000" rx="3" ry="3" style="stroke:#000000;stroke-width:1.0;"/><text fill="#000000" font-family="sans-serif" font-size="14" lengthAdjust="spacing" textLength="172" x="507.5" y="490.6895">completed_at: TIMESTAMP</text><ellipse cx="498.5" cy="504.0703" fill="#000000" rx="3" ry="3" style="stroke:#000000;stroke-width:1.0;"/><text fill="#000000" font-family="sans-serif" font-size="14" lengthAdjust="spacing" textLength="160" x="507.5" y="508.2988">last_activity: TIMESTAMP</text><ellipse cx="498.5" cy="521.6797" fill="#000000" rx="3" ry="3" style="stroke:#000000;stroke-width:1.0;"/><text fill="#000000" font-family="sans-serif" font-size="14" lengthAdjust="spacing" textLength="83" x="507.5" y="525.9082">attempts: INT</text></g><!--class grade--><g id="elem_grade"><rect codeLine="101" fill="#F1F1F1" height="184.4844" id="grade" rx="2.5" ry="2.5" style="stroke:#181818;stroke-width:0.5;" width="202" x="237.5" y="1493"/><text fill="#000000" font-family="sans-serif" font-size="14" lengthAdjust="spacing" textLength="50" x="313.5" y="1512.5332">&#1054;&#1094;&#1077;&#1085;&#1082;&#1072;</text><line style="stroke:#181818;stroke-width:0.5;" x1="238.5" x2="438.5" y1="1520.6094" y2="1520.6094"/><ellipse cx="248.5" cy="1534.9141" fill="#84BE84" rx="3" ry="3" style="stroke:#038048;stroke-width:1.0;"/><text fill="#000000" font-family="sans-serif" font-size="14" lengthAdjust="spacing" textLength="43" x="257.5" y="1539.1426">id (PK)</text><line style="stroke:#181818;stroke-width:1.0;" x1="238.5" x2="438.5" y1="1546.2188" y2="1546.2188"/><ellipse cx="248.5" cy="1560.5234" fill="#000000" rx="3" ry="3" style="stroke:#000000;stroke-width:1.0;"/><text fill="#000000" font-family="sans-serif" font-size="14" lengthAdjust="spacing" textLength="176" x="257.5" y="1564.752">progress_id: FOREIGN KEY</text><ellipse cx="248.5" cy="1578.1328" fill="#000000" rx="3" ry="3" style="stroke:#000000;stroke-width:1.0;"/><text fill="#000000" font-family="sans-serif" font-size="14" lengthAdjust="spacing" textLength="133" x="257.5" y="1582.3613">score: DECIMAL(5,2)</text><ellipse cx="248.5" cy="1595.7422" fill="#000000" rx="3" ry="3" style="stroke:#000000;stroke-width:1.0;"/><text fill="#000000" font-family="sans-serif" font-size="14" lengthAdjust="spacing" textLength="166" x="257.5" y="1599.9707">max_score: DECIMAL(5,2)</text><ellipse cx="248.5" cy="1613.3516" fill="#000000" rx="3" ry="3" style="stroke:#000000;stroke-width:1.0;"/><text fill="#000000" font-family="sans-serif" font-size="14" lengthAdjust="spacing" textLength="156" x="257.5" y="1617.5801">teacher_comment: TEXT</text><ellipse cx="248.5" cy="1630.9609" fill="#000000" rx="3" ry="3" style="stroke:#000000;stroke-width:1.0;"/><text fill="#000000" font-family="sans-serif" font-size="14" lengthAdjust="spacing" textLength="137" x="257.5" y="1635.1895">auto_feedback: TEXT</text><ellipse cx="248.5" cy="1648.5703" fill="#000000" rx="3" ry="3" style="stroke:#000000;stroke-width:1.0;"/><text fill="#000000" font-family="sans-serif" font-size="14" lengthAdjust="spacing" textLength="169" x="257.5" y="1652.7988">graded_by: FOREIGN KEY</text><ellipse cx="248.5" cy="1666.1797" fill="#000000" rx="3" ry="3" style="stroke:#000000;stroke-width:1.0;"/><text fill="#000000" font-family="sans-serif" font-size="14" lengthAdjust="spacing" textLength="152" x="257.5" y="1670.4082">graded_at: TIMESTAMP</text></g><!--class payment--><g id="elem_payment"><rect codeLine="112" fill="#F1F1F1" height="202.0938" id="payment" rx="2.5" ry="2.5" style="stroke:#181818;stroke-width:0.5;" width="223" x="721" y="339.5"/><text fill="#000000" font-family="sans-serif" font-size="14" lengthAdjust="spacing" textLength="49" x="808" y="359.0332">&#1055;&#1083;&#1072;&#1090;&#1077;&#1078;</text><line style="stroke:#181818;stroke-width:0.5;" x1="722" x2="943" y1="367.1094" y2="367.1094"/><ellipse cx="732" cy="381.4141" fill="#84BE84" rx="3" ry="3" style="stroke:#038048;stroke-width:1.0;"/><text fill="#000000" font-family="sans-serif" font-size="14" lengthAdjust="spacing" textLength="43" x="741" y="385.6426">id (PK)</text><line style="stroke:#181818;stroke-width:1.0;" x1="722" x2="943" y1="392.7188" y2="392.7188"/><ellipse cx="732" cy="407.0234" fill="#000000" rx="3" ry="3" style="stroke:#000000;stroke-width:1.0;"/><text fill="#000000" font-family="sans-serif" font-size="14" lengthAdjust="spacing" textLength="148" x="741" y="411.252">user_id: FOREIGN KEY</text><ellipse cx="732" cy="424.6328" fill="#000000" rx="3" ry="3" style="stroke:#000000;stroke-width:1.0;"/><text fill="#000000" font-family="sans-serif" font-size="14" lengthAdjust="spacing" textLength="163" x="741" y="428.8613">course_id: FOREIGN KEY</text><ellipse cx="732" cy="442.2422" fill="#000000" rx="3" ry="3" style="stroke:#000000;stroke-width:1.0;"/><text fill="#000000" font-family="sans-serif" font-size="14" lengthAdjust="spacing" textLength="153" x="741" y="446.4707">amount: DECIMAL(10,2)</text><ellipse cx="732" cy="459.8516" fill="#000000" rx="3" ry="3" style="stroke:#000000;stroke-width:1.0;"/><text fill="#000000" font-family="sans-serif" font-size="14" lengthAdjust="spacing" textLength="155" x="741" y="464.0801">payment_method: ENUM</text><ellipse cx="732" cy="477.4609" fill="#000000" rx="3" ry="3" style="stroke:#000000;stroke-width:1.0;"/><text fill="#000000" font-family="sans-serif" font-size="14" lengthAdjust="spacing" textLength="197" x="741" y="481.6895">transaction_id: VARCHAR(255)</text><ellipse cx="732" cy="495.0703" fill="#000000" rx="3" ry="3" style="stroke:#000000;stroke-width:1.0;"/><text fill="#000000" font-family="sans-serif" font-size="14" lengthAdjust="spacing" textLength="84" x="741" y="499.2988">status: ENUM</text><ellipse cx="732" cy="512.6797" fill="#000000" rx="3" ry="3" style="stroke:#000000;stroke-width:1.0;"/><text fill="#000000" font-family="sans-serif" font-size="14" lengthAdjust="spacing" textLength="175" x="741" y="516.9082">receipt_url: VARCHAR(255)</text><ellipse cx="732" cy="530.2891" fill="#000000" rx="3" ry="3" style="stroke:#000000;stroke-width:1.0;"/><text fill="#000000" font-family="sans-serif" font-size="14" lengthAdjust="spacing" textLength="155" x="741" y="534.5176">created_at: TIMESTAMP</text></g><!--class certificate--><g id="elem_certificate"><rect codeLine="125" fill="#F1F1F1" height="184.4844" id="certificate" rx="2.5" ry="2.5" style="stroke:#181818;stroke-width:0.5;" width="243" x="356" y="969"/><text fill="#000000" font-family="sans-serif" font-size="14" lengthAdjust="spacing" textLength="81" x="437" y="988.5332">&#1057;&#1077;&#1088;&#1090;&#1080;&#1092;&#1080;&#1082;&#1072;&#1090;</text><line style="stroke:#181818;stroke-width:0.5;" x1="357" x2="598" y1="996.6094" y2="996.6094"/><ellipse cx="367" cy="1010.9141" fill="#84BE84" rx="3" ry="3" style="stroke:#038048;stroke-width:1.0;"/><text fill="#000000" font-family="sans-serif" font-size="14" lengthAdjust="spacing" textLength="43" x="376" y="1015.1426">id (PK)</text><line style="stroke:#181818;stroke-width:1.0;" x1="357" x2="598" y1="1022.2188" y2="1022.2188"/><ellipse cx="367" cy="1036.5234" fill="#000000" rx="3" ry="3" style="stroke:#000000;stroke-width:1.0;"/><text fill="#000000" font-family="sans-serif" font-size="14" lengthAdjust="spacing" textLength="148" x="376" y="1040.752">user_id: FOREIGN KEY</text><ellipse cx="367" cy="1054.1328" fill="#000000" rx="3" ry="3" style="stroke:#000000;stroke-width:1.0;"/><text fill="#000000" font-family="sans-serif" font-size="14" lengthAdjust="spacing" textLength="163" x="376" y="1058.3613">course_id: FOREIGN KEY</text><ellipse cx="367" cy="1071.7422" fill="#000000" rx="3" ry="3" style="stroke:#000000;stroke-width:1.0;"/><text fill="#000000" font-family="sans-serif" font-size="14" lengthAdjust="spacing" textLength="217" x="376" y="1075.9707">certificate_number: VARCHAR(50)</text><ellipse cx="367" cy="1089.3516" fill="#000000" rx="3" ry="3" style="stroke:#000000;stroke-width:1.0;"/><text fill="#000000" font-family="sans-serif" font-size="14" lengthAdjust="spacing" textLength="114" x="376" y="1093.5801">issue_date: DATE</text><ellipse cx="367" cy="1106.9609" fill="#000000" rx="3" ry="3" style="stroke:#000000;stroke-width:1.0;"/><text fill="#000000" font-family="sans-serif" font-size="14" lengthAdjust="spacing" textLength="118" x="376" y="1111.1895">expiry_date: DATE</text><ellipse cx="367" cy="1124.5703" fill="#000000" rx="3" ry="3" style="stroke:#000000;stroke-width:1.0;"/><text fill="#000000" font-family="sans-serif" font-size="14" lengthAdjust="spacing" textLength="200" x="376" y="1128.7988">verification_url: VARCHAR(255)</text><ellipse cx="367" cy="1142.1797" fill="#000000" rx="3" ry="3" style="stroke:#000000;stroke-width:1.0;"/><text fill="#000000" font-family="sans-serif" font-size="14" lengthAdjust="spacing" textLength="152" x="376" y="1146.4082">pdf_url: VARCHAR(255)</text></g><!--link user to institution--><g id="link_user_institution"><path codeLine="137" d="M418.33,270.27 C418.33,307.81 418.33,331 418.33,331 C418.33,331 410.55,331 389.09,331 " fill="none" id="user-institution" style="stroke:#181818;stroke-width:1.0;"/><line style="stroke:#181818;stroke-width:1.0;" x1="418.33" x2="412.33" y1="270.27" y2="262.27"/><line style="stroke:#181818;stroke-width:1.0;" x1="418.33" x2="424.33" y1="270.27" y2="262.27"/><line style="stroke:#181818;stroke-width:1.0;" x1="418.33" x2="418.33" y1="270.27" y2="262.27"/><line style="stroke:#181818;stroke-width:1.0;" x1="414.33" x2="422.33" y1="272.27" y2="272.27"/><line style="stroke:#181818;stroke-width:1.0;" x1="385.09" x2="385.09" y1="335" y2="327"/><line style="stroke:#181818;stroke-width:1.0;" x1="388.09" x2="388.09" y1="335" y2="327"/><line style="stroke:#181818;stroke-width:1.0;" x1="389.09" x2="381.09" y1="331" y2="331"/></g><!--link user to course--><g id="link_user_course"><path codeLine="138" d="M444.67,270.27 C444.67,373.59 444.67,493.08 444.67,600.8 " fill="none" id="user-course" style="stroke:#181818;stroke-width:1.0;"/><line style="stroke:#181818;stroke-width:1.0;" x1="440.67" x2="448.67" y1="266.27" y2="266.27"/><line style="stroke:#181818;stroke-width:1.0;" x1="440.67" x2="448.67" y1="269.27" y2="269.27"/><line style="stroke:#181818;stroke-width:1.0;" x1="444.67" x2="444.67" y1="270.27" y2="262.27"/><line style="stroke:#181818;stroke-width:1.0;" x1="444.67" x2="450.67" y1="610.8" y2="618.8"/><line style="stroke:#181818;stroke-width:1.0;" x1="444.67" x2="438.67" y1="610.8" y2="618.8"/><line style="stroke:#181818;stroke-width:1.0;" x1="444.67" x2="444.67" y1="610.8" y2="618.8"/><ellipse cx="444.67" cy="604.8" fill="none" rx="4" ry="4" style="stroke:#181818;stroke-width:1.0;"/></g><!--link institution to course--><g id="link_institution_course"><path codeLine="139" d="M304.5,567.12 C304.5,586.51 304.5,580.78 304.5,600.72 " fill="none" id="institution-course" style="stroke:#181818;stroke-width:1.0;"/><line style="stroke:#181818;stroke-width:1.0;" x1="300.5" x2="308.5" y1="563.12" y2="563.12"/><line style="stroke:#181818;stroke-width:1.0;" x1="300.5" x2="308.5" y1="566.12" y2="566.12"/><line style="stroke:#181818;stroke-width:1.0;" x1="304.5" x2="304.5" y1="567.12" y2="559.12"/><line style="stroke:#181818;stroke-width:1.0;" x1="304.5" x2="310.5" y1="610.72" y2="618.72"/><line style="stroke:#181818;stroke-width:1.0;" x1="304.5" x2="298.5" y1="610.72" y2="618.72"/><line style="stroke:#181818;stroke-width:1.0;" x1="304.5" x2="304.5" y1="610.72" y2="618.72"/><ellipse cx="304.5" cy="604.72" fill="none" rx="4" ry="4" style="stroke:#181818;stroke-width:1.0;"/></g><!--link course to module--><g id="link_course_module"><path codeLine="140" d="M274.5,917.02 C274.5,943.82 274.5,944.77 274.5,968.38 " fill="none" id="course-module" style="stroke:#181818;stroke-width:1.0;"/><line style="stroke:#181818;stroke-width:1.0;" x1="270.5" x2="278.5" y1="913.02" y2="913.02"/><line style="stroke:#181818;stroke-width:1.0;" x1="270.5" x2="278.5" y1="916.02" y2="916.02"/><line style="stroke:#181818;stroke-width:1.0;" x1="274.5" x2="274.5" y1="917.02" y2="909.02"/><line style="stroke:#181818;stroke-width:1.0;" x1="274.5" x2="280.5" y1="978.38" y2="986.38"/><line style="stroke:#181818;stroke-width:1.0;" x1="274.5" x2="268.5" y1="978.38" y2="986.38"/><line style="stroke:#181818;stroke-width:1.0;" x1="274.5" x2="274.5" y1="978.38" y2="986.38"/><ellipse cx="274.5" cy="972.38" fill="none" rx="4" ry="4" style="stroke:#181818;stroke-width:1.0;"/></g><!--link module to lesson--><g id="link_module_lesson"><path codeLine="141" d="M221.5,1143.73 C221.5,1167.78 221.5,1168.95 221.5,1194.99 " fill="none" id="module-lesson" style="stroke:#181818;stroke-width:1.0;"/><line style="stroke:#181818;stroke-width:1.0;" x1="217.5" x2="225.5" y1="1139.73" y2="1139.73"/><line style="stroke:#181818;stroke-width:1.0;" x1="217.5" x2="225.5" y1="1142.73" y2="1142.73"/><line style="stroke:#181818;stroke-width:1.0;" x1="221.5" x2="221.5" y1="1143.73" y2="1135.73"/><line style="stroke:#181818;stroke-width:1.0;" x1="221.5" x2="227.5" y1="1204.99" y2="1212.99"/><line style="stroke:#181818;stroke-width:1.0;" x1="221.5" x2="215.5" y1="1204.99" y2="1212.99"/><line style="stroke:#181818;stroke-width:1.0;" x1="221.5" x2="221.5" y1="1204.99" y2="1212.99"/><ellipse cx="221.5" cy="1198.99" fill="none" rx="4" ry="4" style="stroke:#181818;stroke-width:1.0;"/></g><!--link lesson to resource--><g id="link_lesson_resource"><path codeLine="142" d="M163.25,1441.35 C163.25,1464.15 163.25,1461.8 163.25,1483.45 " fill="none" id="lesson-resource" style="stroke:#181818;stroke-width:1.0;"/><line style="stroke:#181818;stroke-width:1.0;" x1="159.25" x2="167.25" y1="1437.35" y2="1437.35"/><line style="stroke:#181818;stroke-width:1.0;" x1="159.25" x2="167.25" y1="1440.35" y2="1440.35"/><line style="stroke:#181818;stroke-width:1.0;" x1="163.25" x2="163.25" y1="1441.35" y2="1433.35"/><line style="stroke:#181818;stroke-width:1.0;" x1="163.25" x2="169.25" y1="1493.45" y2="1501.45"/><line style="stroke:#181818;stroke-width:1.0;" x1="163.25" x2="157.25" y1="1493.45" y2="1501.45"/><line style="stroke:#181818;stroke-width:1.0;" x1="163.25" x2="163.25" y1="1493.45" y2="1501.45"/><ellipse cx="163.25" cy="1487.45" fill="none" rx="4" ry="4" style="stroke:#181818;stroke-width:1.0;"/></g><!--link user to progress--><g id="link_user_progress"><path codeLine="143" d="M534.67,270.06 C534.67,298.92 534.67,303.02 534.67,330.11 " fill="none" id="user-progress" style="stroke:#181818;stroke-width:1.0;"/><line style="stroke:#181818;stroke-width:1.0;" x1="530.67" x2="538.67" y1="266.06" y2="266.06"/><line style="stroke:#181818;stroke-width:1.0;" x1="530.67" x2="538.67" y1="269.06" y2="269.06"/><line style="stroke:#181818;stroke-width:1.0;" x1="534.67" x2="534.67" y1="270.06" y2="262.06"/><line style="stroke:#181818;stroke-width:1.0;" x1="534.67" x2="540.67" y1="340.11" y2="348.11"/><line style="stroke:#181818;stroke-width:1.0;" x1="534.67" x2="528.67" y1="340.11" y2="348.11"/><line style="stroke:#181818;stroke-width:1.0;" x1="534.67" x2="534.67" y1="340.11" y2="348.11"/><ellipse cx="534.67" cy="334.11" fill="none" rx="4" ry="4" style="stroke:#181818;stroke-width:1.0;"/></g><!--link lesson to grade--><g id="link_lesson_grade"><path codeLine="144" d="M278,1441.35 C278,1461.21 278,1455.72 278,1474.99 " fill="none" id="lesson-grade" style="stroke:#181818;stroke-width:1.0;"/><line style="stroke:#181818;stroke-width:1.0;" x1="274" x2="282" y1="1437.35" y2="1437.35"/><line style="stroke:#181818;stroke-width:1.0;" x1="274" x2="282" y1="1440.35" y2="1440.35"/><line style="stroke:#181818;stroke-width:1.0;" x1="278" x2="278" y1="1441.35" y2="1433.35"/><line style="stroke:#181818;stroke-width:1.0;" x1="278" x2="284" y1="1484.99" y2="1492.99"/><line style="stroke:#181818;stroke-width:1.0;" x1="278" x2="272" y1="1484.99" y2="1492.99"/><line style="stroke:#181818;stroke-width:1.0;" x1="278" x2="278" y1="1484.99" y2="1492.99"/><ellipse cx="278" cy="1478.99" fill="none" rx="4" ry="4" style="stroke:#181818;stroke-width:1.0;"/></g><!--link user to payment--><g id="link_user_payment"><path codeLine="145" d="M581.83,280.1 C581.83,323.85 581.83,344 581.83,344 C581.83,344 645.88,344 712.73,344 " fill="none" id="user-payment" style="stroke:#181818;stroke-width:1.0;"/><line style="stroke:#181818;stroke-width:1.0;" x1="581.83" x2="575.83" y1="270.1" y2="262.1"/><line style="stroke:#181818;stroke-width:1.0;" x1="581.83" x2="587.83" y1="270.1" y2="262.1"/><line style="stroke:#181818;stroke-width:1.0;" x1="581.83" x2="581.83" y1="270.1" y2="262.1"/><ellipse cx="581.83" cy="276.1" fill="none" rx="4" ry="4" style="stroke:#181818;stroke-width:1.0;"/><line style="stroke:#181818;stroke-width:1.0;" x1="716.73" x2="716.73" y1="340" y2="348"/><line style="stroke:#181818;stroke-width:1.0;" x1="713.73" x2="713.73" y1="340" y2="348"/><line style="stroke:#181818;stroke-width:1.0;" x1="712.73" x2="720.73" y1="344" y2="344"/></g><!--link course to certificate--><g id="link_course_certificate"><path codeLine="146" d="M413.5,917.02 C413.5,937.34 413.5,931.75 413.5,950.72 " fill="none" id="course-certificate" style="stroke:#181818;stroke-width:1.0;"/><line style="stroke:#181818;stroke-width:1.0;" x1="409.5" x2="417.5" y1="913.02" y2="913.02"/><line style="stroke:#181818;stroke-width:1.0;" x1="409.5" x2="417.5" y1="916.02" y2="916.02"/><line style="stroke:#181818;stroke-width:1.0;" x1="413.5" x2="413.5" y1="917.02" y2="909.02"/><line style="stroke:#181818;stroke-width:1.0;" x1="413.5" x2="419.5" y1="960.72" y2="968.72"/><line style="stroke:#181818;stroke-width:1.0;" x1="413.5" x2="407.5" y1="960.72" y2="968.72"/><line style="stroke:#181818;stroke-width:1.0;" x1="413.5" x2="413.5" y1="960.72" y2="968.72"/><ellipse cx="413.5" cy="954.72" fill="none" rx="4" ry="4" style="stroke:#181818;stroke-width:1.0;"/></g><!--SRC=[hLRDRXn54BxFKxHomG4iEOui9D-MP1DMZkt8s0XEezwPsjt6CzEZxfvrDd6ac20G0eaxGaHHNi2Oc5WspZFCl17LFxFkdPq18N7mUhUgVwg-h-ghdh0OICH4b40W3rcMKq5Jah0Cr2m7meMQy23uW9IlgvVL3-Lr-RuwgRufBqXrGggVoxFoklgn_0j_FzWA85DCpSYjybNvlhogVYhVuV-pyXJNd-lVjmYLf90WoBE0a8y8YydAuwtR-7rr5Jy-92oJU4AX6Cz2xHmTtZPsI2bBDiaNlRrxd_NsLjOtDgmzfr8USH674oedcsHvmOW9gSACfk1vDzQiCw5pNzCbU8BM_ix1jhrdmZDlrRfRHQTKKH4MeYssI01L48TKRPBzmNR_y_tUzcERfGnffDWKJ_nqT_THlxTp4qx2noppDf3WUN23wvlgUqJoTyr2UKuGtbE4zxnyYt_NvKLvRW3sGEp2UJ7fzJMNZvmWtHs8AFe4AV4tsQ1XJ9EGnh40AJ7k_fVxnARFCuLPXbtK7S5GCWKj7eI0Ts6AXmfzQbQaGn3BKSuNn5IVVR-ttwyXdu9W8mRn3UW-ihzWTR-eJWo04I-4X2xiS4FYXNsdlbecnTWpV-BCCSX8i5opOU7na5xmrJllhirpmP13bj8nTC0X5LM5zEjKi4YdtRytsEuzMhcpzl6wYw8Gr7JLHEUsIGOx-uw-AIJU0QPekJ1C7nmCxhTqfUVeBl4O4bZs-83_YYNyjdevbuMKnqNI2RgbnDp-O7UlFtYuGxRwNxNoKSE7ie3mrOLI9yo7NuFfFUcnWTKn4W1XBc3AuAYzGjvKBp3aInDiWiNUtLqkbsQqjY-QySwRpnqQQjdr6BcXBcLPeS0ZprGxnkTbGgOevrtTe_FCYs72vCHl0-EQsrl8H3Pfh2S2TjNCtRz8fL5unES21UdA88HoW9H5dOIwP5iX6Z44ho5HDuAEFWjHi_UDIxAdMbO73skGvDtm46Oj9yNyA4iuZKEiBOrXCwjNXky_yFCS9vvLXbpmiHQwJkRrS6kjqdzCUBcHjKMqjnQodkPjtMMlqKF4J1VCOibBbO8qLoqS_bPzPuR8PNbgCXqB6dUILyFGdesCkF14QAFMe1GdI9TF0Oqc21tcbYvMD2qK3qS0yP16XvxT11Y7mzaorixLr1xlTNBbtYH_MbRfJ5_QbMqdf-sYP46WgQsgPIbsjuKfuCigzZZ7mPL9JPqhat-NUm4HuFZuJmyGd_JNkcdrOwxw5bltKeDY1o08XRComkt_AoZUkPqJd4bPG7DymvESYLdJQYTwPDMn7OCy7Yrxz9jAFsZBCtp0lYil0lCaVNwykdfyx0yxQpz6Et_cyWhynzMYnxqQdD6EWC1DDMUq6X2uwU6CjL8kt5PtM6EjgMmNBZVXkcfgtEu1_JS0]--></g></svg>