<?xml version="1.0" encoding="us-ascii" standalone="no"?><svg xmlns="http://www.w3.org/2000/svg" xmlns:xlink="http://www.w3.org/1999/xlink" contentStyleType="text/css" height="769px" preserveAspectRatio="none" style="width:920px;height:769px;background:#FFFFFF;" version="1.1" viewBox="0 0 920 769" width="920px" zoomAndPan="magnify"><defs/><g><text fill="#000000" font-family="sans-serif" font-size="14" font-weight="bold" lengthAdjust="spacing" textLength="161" x="381" y="29.5332">&#1055;&#1088;&#1086;&#1094;&#1077;&#1089;&#1089; &#1086;&#1087;&#1083;&#1072;&#1090;&#1099; &#1082;&#1091;&#1088;&#1089;&#1072;</text><line style="stroke:#181818;stroke-width:0.5;stroke-dasharray:5.0,5.0;" x1="35" x2="35" y1="121.2188" y2="687.5469"/><line style="stroke:#181818;stroke-width:0.5;stroke-dasharray:5.0,5.0;" x1="205.5" x2="205.5" y1="121.2188" y2="687.5469"/><line style="stroke:#181818;stroke-width:0.5;stroke-dasharray:5.0,5.0;" x1="397.5" x2="397.5" y1="121.2188" y2="687.5469"/><line style="stroke:#181818;stroke-width:0.5;stroke-dasharray:5.0,5.0;" x1="566.5" x2="566.5" y1="121.2188" y2="687.5469"/><line style="stroke:#181818;stroke-width:0.5;stroke-dasharray:5.0,5.0;" x1="701" x2="701" y1="121.2188" y2="687.5469"/><line style="stroke:#181818;stroke-width:0.5;stroke-dasharray:5.0,5.0;" x1="791" x2="791" y1="121.2188" y2="687.5469"/><line style="stroke:#181818;stroke-width:0.5;stroke-dasharray:5.0,5.0;" x1="873" x2="873" y1="121.2188" y2="687.5469"/><text fill="#000000" font-family="sans-serif" font-size="14" lengthAdjust="spacing" textLength="55" x="5" y="118.1426">&#1057;&#1090;&#1091;&#1076;&#1077;&#1085;&#1090;</text><ellipse cx="35.5" cy="52.1094" fill="#E2E2F0" rx="8" ry="8" style="stroke:#181818;stroke-width:0.5;"/><path d="M35.5,60.1094 L35.5,87.1094 M22.5,68.1094 L48.5,68.1094 M35.5,87.1094 L22.5,102.1094 M35.5,87.1094 L48.5,102.1094 " fill="none" style="stroke:#181818;stroke-width:0.5;"/><text fill="#000000" font-family="sans-serif" font-size="14" lengthAdjust="spacing" textLength="55" x="5" y="701.0801">&#1057;&#1090;&#1091;&#1076;&#1077;&#1085;&#1090;</text><ellipse cx="35.5" cy="712.6563" fill="#E2E2F0" rx="8" ry="8" style="stroke:#181818;stroke-width:0.5;"/><path d="M35.5,720.6563 L35.5,747.6563 M22.5,728.6563 L48.5,728.6563 M35.5,747.6563 L22.5,762.6563 M35.5,747.6563 L48.5,762.6563 " fill="none" style="stroke:#181818;stroke-width:0.5;"/><rect fill="#E2E2F0" height="31.6094" rx="2.5" ry="2.5" style="stroke:#181818;stroke-width:0.5;" width="72" x="169.5" y="88.6094"/><text fill="#000000" font-family="sans-serif" font-size="14" lengthAdjust="spacing" textLength="58" x="176.5" y="110.1426">Frontend</text><rect fill="#E2E2F0" height="31.6094" rx="2.5" ry="2.5" style="stroke:#181818;stroke-width:0.5;" width="72" x="169.5" y="686.5469"/><text fill="#000000" font-family="sans-serif" font-size="14" lengthAdjust="spacing" textLength="58" x="176.5" y="708.0801">Frontend</text><rect fill="#E2E2F0" height="31.6094" rx="2.5" ry="2.5" style="stroke:#181818;stroke-width:0.5;" width="94" x="350.5" y="88.6094"/><text fill="#000000" font-family="sans-serif" font-size="14" lengthAdjust="spacing" textLength="80" x="357.5" y="110.1426">API Gateway</text><rect fill="#E2E2F0" height="31.6094" rx="2.5" ry="2.5" style="stroke:#181818;stroke-width:0.5;" width="94" x="350.5" y="686.5469"/><text fill="#000000" font-family="sans-serif" font-size="14" lengthAdjust="spacing" textLength="80" x="357.5" y="708.0801">API Gateway</text><rect fill="#E2E2F0" height="31.6094" rx="2.5" ry="2.5" style="stroke:#181818;stroke-width:0.5;" width="138" x="497.5" y="88.6094"/><text fill="#000000" font-family="sans-serif" font-size="14" lengthAdjust="spacing" textLength="124" x="504.5" y="110.1426">&#1055;&#1083;&#1072;&#1090;&#1077;&#1078;&#1085;&#1099;&#1081; &#1089;&#1077;&#1088;&#1074;&#1080;&#1089;</text><rect fill="#E2E2F0" height="31.6094" rx="2.5" ry="2.5" style="stroke:#181818;stroke-width:0.5;" width="138" x="497.5" y="686.5469"/><text fill="#000000" font-family="sans-serif" font-size="14" lengthAdjust="spacing" textLength="124" x="504.5" y="708.0801">&#1055;&#1083;&#1072;&#1090;&#1077;&#1078;&#1085;&#1099;&#1081; &#1089;&#1077;&#1088;&#1074;&#1080;&#1089;</text><rect fill="#E2E2F0" height="31.6094" rx="2.5" ry="2.5" style="stroke:#181818;stroke-width:0.5;" width="109" x="647" y="88.6094"/><text fill="#000000" font-family="sans-serif" font-size="14" lengthAdjust="spacing" textLength="95" x="654" y="110.1426">&#1057;&#1077;&#1088;&#1074;&#1080;&#1089; &#1082;&#1091;&#1088;&#1089;&#1086;&#1074;</text><rect fill="#E2E2F0" height="31.6094" rx="2.5" ry="2.5" style="stroke:#181818;stroke-width:0.5;" width="109" x="647" y="686.5469"/><text fill="#000000" font-family="sans-serif" font-size="14" lengthAdjust="spacing" textLength="95" x="654" y="708.0801">&#1057;&#1077;&#1088;&#1074;&#1080;&#1089; &#1082;&#1091;&#1088;&#1089;&#1086;&#1074;</text><rect fill="#E2E2F0" height="31.6094" rx="2.5" ry="2.5" style="stroke:#181818;stroke-width:0.5;" width="51" x="766" y="88.6094"/><text fill="#000000" font-family="sans-serif" font-size="14" lengthAdjust="spacing" textLength="37" x="773" y="110.1426">Stripe</text><rect fill="#E2E2F0" height="31.6094" rx="2.5" ry="2.5" style="stroke:#181818;stroke-width:0.5;" width="51" x="766" y="686.5469"/><text fill="#000000" font-family="sans-serif" font-size="14" lengthAdjust="spacing" textLength="37" x="773" y="708.0801">Stripe</text><text fill="#000000" font-family="sans-serif" font-size="14" lengthAdjust="spacing" textLength="86" x="827" y="118.1426">&#1041;&#1044; &#1087;&#1083;&#1072;&#1090;&#1077;&#1078;&#1077;&#1081;</text><path d="M855,67.6094 C855,57.6094 873,57.6094 873,57.6094 C873,57.6094 891,57.6094 891,67.6094 L891,93.6094 C891,103.6094 873,103.6094 873,103.6094 C873,103.6094 855,103.6094 855,93.6094 L855,67.6094 " fill="#E2E2F0" style="stroke:#181818;stroke-width:1.5;"/><path d="M855,67.6094 C855,77.6094 873,77.6094 873,77.6094 C873,77.6094 891,77.6094 891,67.6094 " fill="none" style="stroke:#181818;stroke-width:1.5;"/><text fill="#000000" font-family="sans-serif" font-size="14" lengthAdjust="spacing" textLength="86" x="827" y="701.0801">&#1041;&#1044; &#1087;&#1083;&#1072;&#1090;&#1077;&#1078;&#1077;&#1081;</text><path d="M855,714.1563 C855,704.1563 873,704.1563 873,704.1563 C873,704.1563 891,704.1563 891,714.1563 L891,740.1563 C891,750.1563 873,750.1563 873,750.1563 C873,750.1563 855,750.1563 855,740.1563 L855,714.1563 " fill="#E2E2F0" style="stroke:#181818;stroke-width:1.5;"/><path d="M855,714.1563 C855,724.1563 873,724.1563 873,724.1563 C873,724.1563 891,724.1563 891,714.1563 " fill="none" style="stroke:#181818;stroke-width:1.5;"/><polygon fill="#181818" points="193.5,149.5703,203.5,153.5703,193.5,157.5703,197.5,153.5703" style="stroke:#181818;stroke-width:1.0;"/><line style="stroke:#181818;stroke-width:1.0;" x1="35.5" x2="199.5" y1="153.5703" y2="153.5703"/><text fill="#000000" font-family="sans-serif" font-size="13" lengthAdjust="spacing" textLength="146" x="42.5" y="148.7139">&#1053;&#1072;&#1078;&#1080;&#1084;&#1072;&#1077;&#1090; "&#1050;&#1091;&#1087;&#1080;&#1090;&#1100; &#1082;&#1091;&#1088;&#1089;"</text><polygon fill="#181818" points="385.5,179.9219,395.5,183.9219,385.5,187.9219,389.5,183.9219" style="stroke:#181818;stroke-width:1.0;"/><line style="stroke:#181818;stroke-width:1.0;" x1="205.5" x2="391.5" y1="183.9219" y2="183.9219"/><text fill="#000000" font-family="sans-serif" font-size="13" lengthAdjust="spacing" textLength="140" x="212.5" y="179.0654">POST /payments/create</text><polygon fill="#181818" points="554.5,210.2734,564.5,214.2734,554.5,218.2734,558.5,214.2734" style="stroke:#181818;stroke-width:1.0;"/><line style="stroke:#181818;stroke-width:1.0;" x1="397.5" x2="560.5" y1="214.2734" y2="214.2734"/><text fill="#000000" font-family="sans-serif" font-size="13" lengthAdjust="spacing" textLength="145" x="404.5" y="209.417">&#1048;&#1085;&#1080;&#1094;&#1080;&#1072;&#1083;&#1080;&#1079;&#1072;&#1094;&#1080;&#1103; &#1087;&#1083;&#1072;&#1090;&#1077;&#1078;&#1072;</text><polygon fill="#181818" points="861,240.625,871,244.625,861,248.625,865,244.625" style="stroke:#181818;stroke-width:1.0;"/><line style="stroke:#181818;stroke-width:1.0;" x1="566.5" x2="867" y1="244.625" y2="244.625"/><text fill="#000000" font-family="sans-serif" font-size="13" lengthAdjust="spacing" textLength="103" x="573.5" y="239.7686">&#1057;&#1086;&#1079;&#1076;&#1072;&#1085;&#1080;&#1077; &#1079;&#1072;&#1087;&#1080;&#1089;&#1080;</text><polygon fill="#181818" points="577.5,270.9766,567.5,274.9766,577.5,278.9766,573.5,274.9766" style="stroke:#181818;stroke-width:1.0;"/><line style="stroke:#181818;stroke-width:1.0;stroke-dasharray:2.0,2.0;" x1="571.5" x2="872" y1="274.9766" y2="274.9766"/><text fill="#000000" font-family="sans-serif" font-size="13" lengthAdjust="spacing" textLength="82" x="583.5" y="270.1201">ID &#1090;&#1088;&#1072;&#1085;&#1079;&#1072;&#1082;&#1094;&#1080;&#1080;</text><polygon fill="#181818" points="779.5,301.3281,789.5,305.3281,779.5,309.3281,783.5,305.3281" style="stroke:#181818;stroke-width:1.0;"/><line style="stroke:#181818;stroke-width:1.0;" x1="566.5" x2="785.5" y1="305.3281" y2="305.3281"/><text fill="#000000" font-family="sans-serif" font-size="13" lengthAdjust="spacing" textLength="104" x="573.5" y="300.4717">&#1057;&#1086;&#1079;&#1076;&#1072;&#1085;&#1080;&#1077; &#1089;&#1077;&#1089;&#1089;&#1080;&#1080;</text><polygon fill="#181818" points="577.5,331.6797,567.5,335.6797,577.5,339.6797,573.5,335.6797" style="stroke:#181818;stroke-width:1.0;"/><line style="stroke:#181818;stroke-width:1.0;stroke-dasharray:2.0,2.0;" x1="571.5" x2="790.5" y1="335.6797" y2="335.6797"/><text fill="#000000" font-family="sans-serif" font-size="13" lengthAdjust="spacing" textLength="71" x="583.5" y="330.8232">URL &#1086;&#1087;&#1083;&#1072;&#1090;&#1099;</text><polygon fill="#181818" points="408.5,362.0313,398.5,366.0313,408.5,370.0313,404.5,366.0313" style="stroke:#181818;stroke-width:1.0;"/><line style="stroke:#181818;stroke-width:1.0;stroke-dasharray:2.0,2.0;" x1="402.5" x2="565.5" y1="366.0313" y2="366.0313"/><text fill="#000000" font-family="sans-serif" font-size="13" lengthAdjust="spacing" textLength="107" x="414.5" y="361.1748">&#1055;&#1077;&#1088;&#1077;&#1085;&#1072;&#1087;&#1088;&#1072;&#1074;&#1083;&#1077;&#1085;&#1080;&#1077;</text><polygon fill="#181818" points="216.5,392.3828,206.5,396.3828,216.5,400.3828,212.5,396.3828" style="stroke:#181818;stroke-width:1.0;"/><line style="stroke:#181818;stroke-width:1.0;stroke-dasharray:2.0,2.0;" x1="210.5" x2="396.5" y1="396.3828" y2="396.3828"/><text fill="#000000" font-family="sans-serif" font-size="13" lengthAdjust="spacing" textLength="168" x="222.5" y="391.5264">&#1054;&#1090;&#1082;&#1088;&#1099;&#1090;&#1080;&#1077; &#1087;&#1083;&#1072;&#1090;&#1077;&#1078;&#1085;&#1086;&#1081; &#1092;&#1086;&#1088;&#1084;&#1099;</text><polygon fill="#181818" points="779.5,422.7344,789.5,426.7344,779.5,430.7344,783.5,426.7344" style="stroke:#181818;stroke-width:1.0;"/><line style="stroke:#181818;stroke-width:1.0;" x1="35.5" x2="785.5" y1="426.7344" y2="426.7344"/><text fill="#000000" font-family="sans-serif" font-size="13" lengthAdjust="spacing" textLength="177" x="42.5" y="421.8779">&#1042;&#1074;&#1086;&#1076; &#1082;&#1072;&#1088;&#1090;&#1099; &#1080; &#1087;&#1086;&#1076;&#1090;&#1074;&#1077;&#1088;&#1078;&#1076;&#1077;&#1085;&#1080;&#1077;</text><polygon fill="#181818" points="577.5,453.0859,567.5,457.0859,577.5,461.0859,573.5,457.0859" style="stroke:#181818;stroke-width:1.0;"/><line style="stroke:#181818;stroke-width:1.0;" x1="571.5" x2="790.5" y1="457.0859" y2="457.0859"/><text fill="#000000" font-family="sans-serif" font-size="13" lengthAdjust="spacing" textLength="102" x="583.5" y="452.2295">Webhook (&#1091;&#1089;&#1087;&#1077;&#1093;)</text><polygon fill="#181818" points="861,483.4375,871,487.4375,861,491.4375,865,487.4375" style="stroke:#181818;stroke-width:1.0;"/><line style="stroke:#181818;stroke-width:1.0;" x1="566.5" x2="867" y1="487.4375" y2="487.4375"/><text fill="#000000" font-family="sans-serif" font-size="13" lengthAdjust="spacing" textLength="122" x="573.5" y="482.5811">&#1054;&#1073;&#1085;&#1086;&#1074;&#1083;&#1077;&#1085;&#1080;&#1077; &#1089;&#1090;&#1072;&#1090;&#1091;&#1089;&#1072;</text><polygon fill="#181818" points="577.5,513.7891,567.5,517.7891,577.5,521.7891,573.5,517.7891" style="stroke:#181818;stroke-width:1.0;"/><line style="stroke:#181818;stroke-width:1.0;stroke-dasharray:2.0,2.0;" x1="571.5" x2="872" y1="517.7891" y2="517.7891"/><text fill="#000000" font-family="sans-serif" font-size="13" lengthAdjust="spacing" textLength="19" x="583.5" y="512.9326">OK</text><polygon fill="#181818" points="689.5,544.1406,699.5,548.1406,689.5,552.1406,693.5,548.1406" style="stroke:#181818;stroke-width:1.0;"/><line style="stroke:#181818;stroke-width:1.0;" x1="566.5" x2="695.5" y1="548.1406" y2="548.1406"/><text fill="#000000" font-family="sans-serif" font-size="13" lengthAdjust="spacing" textLength="111" x="573.5" y="543.2842">&#1056;&#1072;&#1079;&#1088;&#1077;&#1096;&#1080;&#1090;&#1100; &#1076;&#1086;&#1089;&#1090;&#1091;&#1087;</text><polygon fill="#181818" points="577.5,574.4922,567.5,578.4922,577.5,582.4922,573.5,578.4922" style="stroke:#181818;stroke-width:1.0;"/><line style="stroke:#181818;stroke-width:1.0;stroke-dasharray:2.0,2.0;" x1="571.5" x2="700.5" y1="578.4922" y2="578.4922"/><text fill="#000000" font-family="sans-serif" font-size="13" lengthAdjust="spacing" textLength="95" x="583.5" y="573.6357">&#1055;&#1086;&#1076;&#1090;&#1074;&#1077;&#1088;&#1078;&#1076;&#1077;&#1085;&#1080;&#1077;</text><polygon fill="#181818" points="408.5,604.8438,398.5,608.8438,408.5,612.8438,404.5,608.8438" style="stroke:#181818;stroke-width:1.0;"/><line style="stroke:#181818;stroke-width:1.0;" x1="402.5" x2="565.5" y1="608.8438" y2="608.8438"/><text fill="#000000" font-family="sans-serif" font-size="13" lengthAdjust="spacing" textLength="81" x="414.5" y="603.9873">&#1059;&#1074;&#1077;&#1076;&#1086;&#1084;&#1083;&#1077;&#1085;&#1080;&#1077;</text><polygon fill="#181818" points="216.5,635.1953,206.5,639.1953,216.5,643.1953,212.5,639.1953" style="stroke:#181818;stroke-width:1.0;"/><line style="stroke:#181818;stroke-width:1.0;" x1="210.5" x2="396.5" y1="639.1953" y2="639.1953"/><text fill="#000000" font-family="sans-serif" font-size="13" lengthAdjust="spacing" textLength="122" x="222.5" y="634.3389">&#1054;&#1073;&#1085;&#1086;&#1074;&#1083;&#1077;&#1085;&#1080;&#1077; &#1089;&#1090;&#1072;&#1090;&#1091;&#1089;&#1072;</text><polygon fill="#181818" points="46.5,665.5469,36.5,669.5469,46.5,673.5469,42.5,669.5469" style="stroke:#181818;stroke-width:1.0;"/><line style="stroke:#181818;stroke-width:1.0;" x1="40.5" x2="204.5" y1="669.5469" y2="669.5469"/><text fill="#000000" font-family="sans-serif" font-size="13" lengthAdjust="spacing" textLength="133" x="52.5" y="664.6904">&#1044;&#1086;&#1089;&#1090;&#1091;&#1087; &#1082; &#1082;&#1091;&#1088;&#1089;&#1091; &#1086;&#1090;&#1082;&#1088;&#1099;&#1090;</text><!--SRC=[XLDTQnD157sVNp7aIHzAt_iW2A8KXHPhwQDCaX4NDRliRYbzsqsq2154wOC8jWt-WJLacsriahzmvn_rpCn-p9Q8J_inzvnxphbtOYz-BpbTgeHMwenobQgKquhMz9SoDLHZJWirKebAAMDCz68_v3J1mOXcbDDI3Rc8-74aGnQ8CFPwNY06CUyy3Vr1B0VzZZv-ep_Qvu_tT_ap4SiJSMfAHE2r2-ZIAa2JQxGPqms7XXmwfrIer802SVf1tcUcILFLY5_Hr41w_d4OoQWDEOX3Bv3cF3Alh2zYqHMH1DqtEkTL74PCJZTLzzVzBcFQFDzwP5tkSFf56QeAkiKpHpuT-ecqrj0pL5zgHHrcwZKGtdVu_jx1AxvTEegsUw54EWn7kgBy3V8Vj0JH6UWpI2fe3bduKb_R6ZDMGaeqX08yGGnpp2tJ99HpZJR2KYgOhU9RRhlT9noY4mFGjGlJkN39RM0RoCsqKaqDWArgan- -VD7Qj8QroWGxe4U9DTCwZOufgdFRmORZ17y1ymjaEyRJs7CJMQ8LLkWZrZoXMtIhvrOx-0xs5Sqm8g0Ik_o5Pi5Fi4oDc6kxzqP0vSenTIIxRtt_7N-0AQU0vkhJmuspkA0_HfDZ296XZSvYPAxRfediFNVPocq6tHMocUkirETgqMQmcfgRkcPbOPiByVxBcTF3JkAtBjAKMEjx4t06y7zFzTBhz04vRqGYz_fsg15Mendd7G00]--></g></svg>